<svg width="113" height="113" viewBox="0 0 113 113" fill="none" xmlns="http://www.w3.org/2000/svg">
<path d="M56.5 0.25C87.5669 0.25 112.75 25.4331 112.75 56.5C112.75 87.5669 87.5669 112.75 56.5 112.75C25.4331 112.75 0.25 87.5669 0.25 56.5C0.25 25.4331 25.4331 0.25 56.5 0.25ZM56.5 11.5C44.5653 11.5 33.1193 16.2411 24.6802 24.6802C16.2411 33.1193 11.5 44.5653 11.5 56.5C11.5 68.4347 16.2411 79.8807 24.6802 88.3198C33.1193 96.7589 44.5653 101.5 56.5 101.5C68.4347 101.5 79.8807 96.7589 88.3198 88.3198C96.7589 79.8807 101.5 68.4347 101.5 56.5C101.5 44.5653 96.7589 33.1193 88.3198 24.6802C79.8807 16.2411 68.4347 11.5 56.5 11.5ZM56.5 73.375C57.9918 73.375 59.4226 73.9676 60.4775 75.0225C61.5324 76.0774 62.125 77.5082 62.125 79C62.125 80.4918 61.5324 81.9226 60.4775 82.9775C59.4226 84.0324 57.9918 84.625 56.5 84.625C55.0082 84.625 53.5774 84.0324 52.5225 82.9775C51.4676 81.9226 50.875 80.4918 50.875 79C50.875 77.5082 51.4676 76.0774 52.5225 75.0225C53.5774 73.9676 55.0082 73.375 56.5 73.375ZM56.5 22.75C57.9918 22.75 59.4226 23.3426 60.4775 24.3975C61.5324 25.4524 62.125 26.8832 62.125 28.375V62.125C62.125 63.6168 61.5324 65.0476 60.4775 66.1025C59.4226 67.1574 57.9918 67.75 56.5 67.75C55.0082 67.75 53.5774 67.1574 52.5225 66.1025C51.4676 65.0476 50.875 63.6168 50.875 62.125V28.375C50.875 26.8832 51.4676 25.4524 52.5225 24.3975C53.5774 23.3426 55.0082 22.75 56.5 22.75Z" fill="#F4DFB0"/>
</svg>
