<svg width="405" height="85" viewBox="0 0 405 85" fill="none" xmlns="http://www.w3.org/2000/svg">
<g filter="url(#filter0_d_34_9)">
<path d="M64.303 2H396.121L340.818 75.0001L9 75L64.303 2Z" fill="#8C6F4D"/>
<path d="M64.303 2H396.121L340.818 75.0001L9 75L64.303 2Z" stroke="#F4DFB0" stroke-width="4"/>
</g>
<path d="M165.938 39.96C166.023 39.9173 166.087 39.8213 166.13 39.672C166.172 39.5013 166.204 39.32 166.226 39.128C166.268 38.936 166.3 38.744 166.322 38.552C166.364 38.3387 166.428 38.168 166.514 38.04C166.77 37.656 166.983 37.336 167.154 37.08C167.346 36.8027 167.506 36.5787 167.634 36.408C167.783 36.216 167.9 36.0667 167.986 35.96C168.071 35.832 168.135 35.704 168.178 35.576C168.455 35.3627 168.604 35.1707 168.626 35C168.668 34.8293 168.764 34.5947 168.914 34.296C169.02 34.0827 169.138 33.8053 169.266 33.464C169.394 33.1013 169.468 32.888 169.49 32.824C169.554 32.632 169.66 32.4187 169.81 32.184C169.98 31.928 170.14 31.6613 170.29 31.384C170.46 31.0853 170.61 30.776 170.738 30.456C170.866 30.1147 170.93 29.7627 170.93 29.4C170.951 28.9307 170.962 28.5253 170.962 28.184C170.983 27.8213 171.015 27.512 171.058 27.256L172.05 27.032L173.17 27.544C173.17 27.8853 173.276 28.184 173.49 28.44C173.724 28.6747 173.852 28.888 173.874 29.08C173.874 29.2507 173.746 29.5493 173.49 29.976C173.234 30.3813 173.042 30.8827 172.914 31.48C172.892 31.6507 172.764 31.8747 172.53 32.152C172.295 32.408 172.167 32.7173 172.146 33.08C172.146 33.4427 172.071 33.816 171.922 34.2C171.772 34.5627 171.666 34.8187 171.602 34.968C171.41 35.4373 171.122 36.0667 170.738 36.856C170.375 37.6453 169.916 38.616 169.362 39.768C168.807 40.92 168.348 41.816 167.986 42.456C167.623 43.096 167.41 43.4907 167.346 43.64L167.09 44.216L166.834 44.728L165.586 45.592L163.506 45.624L162.866 45.944L161.714 44.632C161.586 44.312 161.394 43.96 161.138 43.576C160.903 43.192 160.679 42.744 160.466 42.232L159.73 40.344C159.922 39.896 160.018 39.544 160.018 39.288C160.039 39.032 159.996 38.84 159.89 38.712C159.783 38.584 159.634 38.5093 159.442 38.488C159.25 38.4453 159.047 38.4133 158.834 38.392C158.706 38.3707 158.567 38.2427 158.418 38.008C158.268 37.752 158.119 37.5813 157.97 37.496L157.906 36.76L157.074 35.416L156.818 32.664C156.86 32.5147 156.839 32.3973 156.754 32.312C156.69 32.2267 156.594 32.1627 156.466 32.12L156.082 31.96C155.932 31.896 155.847 31.8213 155.826 31.736C155.655 31.3947 155.516 31.0853 155.41 30.808C155.324 30.5093 155.25 30.2427 155.186 30.008C155.122 29.7733 155.047 29.56 154.962 29.368C154.898 29.176 154.802 29.016 154.674 28.888L154.706 27.576C154.962 27.4267 155.303 27.3307 155.73 27.288C156.22 27.2453 156.594 27.0747 156.85 26.776L157.906 26.456C158.162 26.6693 158.418 26.8613 158.674 27.032C158.93 27.2027 159.122 27.3627 159.25 27.512C159.591 27.9173 160.039 28.248 160.594 28.504C160.615 28.6107 160.679 28.856 160.786 29.24C160.914 29.624 161.052 30.0827 161.202 30.616C161.372 31.1493 161.564 31.736 161.778 32.376C161.991 32.9947 162.194 33.6027 162.386 34.2C162.599 34.7973 162.802 35.352 162.994 35.864C163.207 36.3547 163.388 36.7493 163.538 37.048C163.602 37.176 163.676 37.3787 163.762 37.656C163.847 37.9333 163.932 38.2213 164.018 38.52C164.103 38.7973 164.178 39.064 164.242 39.32C164.327 39.576 164.391 39.7467 164.434 39.832C164.583 39.832 164.711 39.8533 164.818 39.896C164.924 39.9387 165.031 39.9813 165.138 40.024C165.244 40.0667 165.362 40.088 165.49 40.088C165.618 40.088 165.767 40.0453 165.938 39.96ZM188.111 35C188.175 35.3627 188.207 35.6827 188.207 35.96C188.207 36.216 188.196 36.472 188.175 36.728C188.175 36.9627 188.185 37.1973 188.207 37.432C188.249 37.6453 188.335 37.88 188.463 38.136C188.42 38.2213 188.313 38.392 188.143 38.648C187.993 38.8827 187.887 39.128 187.823 39.384C187.78 39.6187 187.748 39.8 187.727 39.928C187.705 40.056 187.684 40.1413 187.663 40.184C187.727 40.2267 187.78 40.312 187.823 40.44C187.844 40.5467 187.823 40.6853 187.759 40.856C187.695 41.0053 187.567 41.2187 187.375 41.496C186.991 42.008 186.777 42.4453 186.735 42.808C186.692 43.1493 186.607 43.416 186.479 43.608C186.436 43.6507 186.297 43.7147 186.063 43.8C185.849 43.8853 185.593 43.992 185.295 44.12C184.996 44.2267 184.697 44.3547 184.399 44.504C184.1 44.6533 183.865 44.8027 183.695 44.952C183.332 45.016 183.012 45.1013 182.735 45.208C182.457 45.3147 182.116 45.3893 181.711 45.432C181.327 45.5173 180.932 45.624 180.527 45.752C180.121 45.8587 179.897 45.912 179.855 45.912C178.852 45.912 178.255 45.944 178.063 46.008C177.892 46.072 177.689 46.104 177.455 46.104L174.543 45.048L173.199 43.096C173.199 42.584 173.177 42.1573 173.135 41.816C173.113 41.4533 173.081 41.144 173.039 40.888C172.996 40.6107 172.964 40.3547 172.943 40.12C172.921 39.8853 172.921 39.6187 172.943 39.32C173.007 39.256 173.103 39.1067 173.231 38.872C173.359 38.616 173.487 38.328 173.615 38.008C173.764 37.688 173.903 37.3573 174.031 37.016C174.18 36.6747 174.287 36.3867 174.351 36.152C174.521 35.6613 174.649 35.2347 174.735 34.872C174.82 34.488 174.884 34.1467 174.927 33.848C175.097 33.7413 175.236 33.624 175.343 33.496C175.449 33.368 175.556 33.2613 175.663 33.176C176.537 32.664 177.295 32.248 177.935 31.928C178.575 31.5867 179.172 31.3733 179.727 31.288L180.687 31.224C180.793 31.2453 180.889 31.2667 180.975 31.288C181.06 31.3093 181.145 31.3307 181.231 31.352C181.359 31.3947 181.476 31.4267 181.583 31.448C181.689 31.448 181.753 31.448 181.775 31.448L182.415 32.44C182.415 32.632 182.372 32.792 182.287 32.92C182.201 33.0267 182.287 33.1013 182.543 33.144C182.82 33.208 182.969 33.2507 182.991 33.272V33.304C183.332 33.304 183.684 33.2293 184.047 33.08C184.409 32.9093 184.772 32.824 185.135 32.824C185.22 32.824 185.369 32.8667 185.583 32.952C185.796 33.016 186.02 33.1013 186.255 33.208C186.489 33.3147 186.703 33.4213 186.895 33.528C187.108 33.6133 187.257 33.6773 187.343 33.72C187.3 34.04 187.311 34.264 187.375 34.392C187.439 34.52 187.524 34.616 187.631 34.68C187.737 34.7227 187.833 34.7653 187.919 34.808C188.025 34.8293 188.089 34.8933 188.111 35ZM182.383 43C182.703 42.7867 183.012 42.104 183.311 40.952C183.481 40.3333 183.62 39.8747 183.727 39.576C183.855 39.256 183.919 38.9573 183.919 38.68C183.919 38.2107 183.759 37.656 183.439 37.016C183.268 36.6747 183.14 36.3867 183.055 36.152C182.969 35.9173 182.905 35.6827 182.863 35.448C182.692 35.3627 182.596 35.2347 182.575 35.064C182.575 34.872 182.489 34.68 182.319 34.488C182.105 34.3173 181.977 34.2533 181.935 34.296C181.892 34.3387 181.849 34.36 181.807 34.36H181.519C181.348 34.36 181.113 34.392 180.815 34.456C180.537 34.52 180.313 34.6693 180.143 34.904C179.887 35.1813 179.663 35.4053 179.471 35.576C179.3 35.7253 179.204 35.8213 179.183 35.864C178.969 36.2693 178.777 36.6213 178.607 36.92C178.436 37.1973 178.297 37.4213 178.191 37.592L177.903 38.264C177.775 38.584 177.721 39.0107 177.743 39.544C177.785 39.6293 177.828 39.8213 177.871 40.12C177.913 40.3973 177.785 40.696 177.487 41.016C177.423 41.08 177.359 41.208 177.295 41.4C177.231 41.5707 177.188 41.7733 177.167 42.008C177.145 42.2427 177.167 42.4773 177.231 42.712C177.316 42.9467 177.476 43.1493 177.711 43.32C178.009 43.5333 178.319 43.7467 178.639 43.96C178.959 44.152 179.161 44.248 179.247 44.248H179.599C179.727 44.248 179.844 44.28 179.951 44.344L182.383 43ZM197.587 41.336L197.715 43.608L197.587 44.792V45.4L196.979 46.264L195.923 46.52L193.171 47.032C192.936 47.0747 192.744 47.0427 192.595 46.936C192.467 46.808 192.403 46.4987 192.403 46.008V45.944L192.915 43.512L193.011 41.336V40.12L193.395 37.368C193.373 37.2613 193.352 37.0587 193.331 36.76C193.309 36.4613 193.277 36.088 193.235 35.64C193.213 35.4053 193.203 35.192 193.203 35C193.203 34.808 193.192 34.6373 193.171 34.488V33.816C193.171 33.8373 193.245 33.7733 193.395 33.624C193.544 33.4533 193.672 33.2507 193.779 33.016C193.885 32.76 193.928 32.4827 193.907 32.184C193.885 31.8853 193.704 31.608 193.363 31.352L193.907 25.816C194.056 25.7307 194.067 25.4747 193.939 25.048L194.579 24.408L194.995 24.344C195.08 24.3653 195.219 24.3867 195.411 24.408C195.603 24.408 195.805 24.4187 196.019 24.44C196.232 24.44 196.435 24.4507 196.627 24.472C196.84 24.472 197 24.4827 197.107 24.504C197.299 24.5467 197.544 24.5787 197.843 24.6C198.141 24.6 198.355 24.632 198.483 24.696L199.123 25.048V25.656C199.187 25.784 199.176 25.9653 199.091 26.2C199.027 26.4133 199.005 26.6693 199.027 26.968C199.027 27.1173 199.016 27.288 198.995 27.48C198.973 27.672 198.952 27.8533 198.931 28.024C198.931 28.1947 198.92 28.344 198.899 28.472C198.877 28.6 198.867 28.6747 198.867 28.696C198.867 28.7387 198.856 28.792 198.835 28.856L198.803 29.112C198.803 29.1973 198.781 29.272 198.739 29.336C198.717 29.4 198.696 29.4213 198.675 29.4C198.653 29.4 198.6 29.464 198.515 29.592C198.451 29.72 198.376 29.88 198.291 30.072C198.227 30.2427 198.173 30.424 198.131 30.616C198.088 30.808 198.077 30.9573 198.099 31.064C198.12 31.1707 198.141 31.3413 198.163 31.576C198.184 31.7893 198.205 32.088 198.227 32.472C198.227 32.664 198.227 32.8347 198.227 32.984C198.248 33.1333 198.259 33.2613 198.259 33.368C198.259 33.496 198.269 33.592 198.291 33.656L198.067 35.544L198.131 36.472C197.832 37.0693 197.693 37.4853 197.715 37.72C197.757 37.9547 197.885 38.1467 198.099 38.296L197.587 41.336ZM209.504 45.624C209.419 45.3893 209.205 45.0693 208.864 44.664C208.523 44.2373 208.256 43.7787 208.064 43.288C207.701 42.3067 207.435 41.6133 207.264 41.208C207.115 40.7813 206.976 40.5467 206.848 40.504C206.741 40.4613 206.603 40.344 206.432 40.152C206.261 39.96 206.069 39.8213 205.856 39.736C205.621 38.9893 205.344 38.2 205.024 37.368C204.704 36.5147 204.277 35.7253 203.744 35C203.509 34.68 203.339 34.4133 203.232 34.2C203.147 33.9653 203.072 33.7627 203.008 33.592C202.965 33.4213 202.912 33.2827 202.848 33.176C202.784 33.048 202.677 32.9307 202.528 32.824V31.64C202.741 31.512 203.019 31.448 203.36 31.448C203.509 31.448 203.605 31.384 203.648 31.256C203.712 31.1067 203.797 31 203.904 30.936C204.011 30.8933 204.192 30.8293 204.448 30.744C204.725 30.6587 204.885 30.5627 204.928 30.456L206.048 30.68C206.219 30.7867 206.347 30.8293 206.432 30.808C206.517 30.7867 206.613 30.8187 206.72 30.904C206.912 31.0747 207.115 31.224 207.328 31.352C207.541 31.48 207.787 31.5973 208.064 31.704C208 31.7467 208.064 32.056 208.256 32.632C208.469 33.1867 208.747 33.8693 209.088 34.68C209.429 35.4907 209.803 36.3653 210.208 37.304C210.635 38.2213 211.029 39.0533 211.392 39.8C211.776 40.5467 212.096 41.144 212.352 41.592C212.629 42.04 212.789 42.1893 212.832 42.04C212.917 42.0613 213.024 41.8907 213.152 41.528C213.28 41.1653 213.429 40.7387 213.6 40.248C213.749 39.7147 213.92 39.2667 214.112 38.904C214.304 38.5413 214.443 38.2747 214.528 38.104C214.805 37.9333 214.987 37.7627 215.072 37.592C215.179 37.4213 215.317 37.2187 215.488 36.984C215.616 36.8347 215.701 36.6747 215.744 36.504C215.808 36.312 215.851 36.2053 215.872 36.184C216.043 35.8427 216.267 35.448 216.544 35C216.843 34.552 217.003 34.04 217.024 33.464C217.067 33.08 217.141 32.7493 217.248 32.472C217.376 32.1733 217.461 31.9387 217.504 31.768L218.464 31.672L219.52 32.408C219.52 32.664 219.477 32.8987 219.392 33.112C219.307 33.304 219.275 33.4853 219.296 33.656C219.296 33.7413 219.253 33.8587 219.168 34.008C219.083 34.136 218.987 34.2747 218.88 34.424C218.795 34.5733 218.709 34.7227 218.624 34.872C218.56 35 218.528 35.096 218.528 35.16C218.507 35.3093 218.421 35.48 218.272 35.672C218.123 35.864 218.037 36.1093 218.016 36.408C218.016 37.0267 217.92 37.464 217.728 37.72C217.493 38.0613 217.195 38.5307 216.832 39.128C216.469 39.704 216.085 40.3867 215.68 41.176C215.275 41.9653 214.955 42.648 214.72 43.224C214.485 43.7787 214.347 44.12 214.304 44.248L214.048 44.696L213.344 45.816C212.981 46.0293 212.597 46.1573 212.192 46.2C211.787 46.2427 211.36 46.136 210.912 45.88L210.208 46.136L209.504 45.624ZM235.037 38.68C234.568 38.616 234.152 38.7013 233.789 38.936C233.661 39 233.533 39.064 233.405 39.128C233.277 39.1707 233.149 39.2133 233.021 39.256C232.957 39.2773 232.893 39.2987 232.829 39.32C232.765 39.3413 232.712 39.3627 232.669 39.384L228.221 40.728C226.984 40.4507 226.547 40.6533 226.909 41.336C226.973 41.4853 227.059 41.7093 227.165 42.008C227.272 42.3067 227.357 42.52 227.421 42.648C227.699 42.7547 227.987 42.9253 228.285 43.16C228.584 43.3733 228.861 43.5013 229.117 43.544L229.693 43.48C229.843 43.48 230.045 43.4693 230.301 43.448C230.579 43.4267 230.845 43.3947 231.101 43.352C231.379 43.288 231.624 43.2133 231.837 43.128C232.072 43.0427 232.232 42.936 232.317 42.808C232.381 42.7013 232.477 42.6267 232.605 42.584C232.733 42.52 232.861 42.4667 232.989 42.424C233.075 42.4027 233.149 42.392 233.213 42.392C233.299 42.3707 233.395 42.3493 233.501 42.328L233.853 43.576L233.469 44.312C233.448 44.3547 233.373 44.408 233.245 44.472C233.139 44.5147 233.011 44.5787 232.861 44.664C232.712 44.7493 232.563 44.8347 232.413 44.92C232.285 44.984 232.189 45.048 232.125 45.112C232.083 45.1547 231.965 45.176 231.773 45.176C231.603 45.176 231.4 45.176 231.165 45.176C230.952 45.176 230.728 45.1867 230.493 45.208C230.259 45.2293 230.077 45.272 229.949 45.336C229.651 45.4853 229.416 45.5813 229.245 45.624C229.096 45.6667 228.968 45.6987 228.861 45.72C228.755 45.7627 228.68 45.752 228.637 45.688C228.595 45.6667 228.52 45.656 228.413 45.656C228.349 45.656 228.264 45.656 228.157 45.656C228.051 45.656 227.944 45.6453 227.837 45.624C227.56 45.6027 227.336 45.592 227.165 45.592C226.995 45.5707 226.888 45.56 226.845 45.56L223.773 44.056C223.709 43.416 223.411 43.096 222.877 43.096C222.771 43.096 222.643 43.0107 222.493 42.84C222.344 42.648 222.216 42.4453 222.109 42.232C222.024 42.1253 221.949 42.008 221.885 41.88C221.821 41.7307 221.757 41.5707 221.693 41.4L221.405 37.752L221.693 35.608C221.715 35.5227 221.779 35.416 221.885 35.288C222.013 35.0747 222.173 34.7547 222.365 34.328C222.451 34.136 222.621 33.9547 222.877 33.784C223.133 33.6133 223.4 33.464 223.677 33.336C223.976 33.1867 224.253 33.0587 224.509 32.952C224.787 32.824 224.989 32.7173 225.117 32.632C225.373 32.6747 225.747 32.3973 226.237 31.8C226.365 31.6507 226.525 31.5333 226.717 31.448C226.909 31.3413 227.101 31.256 227.293 31.192C227.4 31.1493 227.517 31.1173 227.645 31.096C227.773 31.0747 227.891 31.0533 227.997 31.032L231.741 31.512C231.955 31.5547 232.179 31.6187 232.413 31.704C232.584 31.7893 232.755 31.896 232.925 32.024C233.096 32.152 233.235 32.3013 233.341 32.472C233.491 32.8347 233.704 33.1333 233.981 33.368C234.259 33.5813 234.483 33.7307 234.653 33.816L235.837 35.928L235.581 38.008L235.037 38.68ZM230.301 37.592L230.557 37.4C230.621 37.3573 230.685 37.3147 230.749 37.272C230.813 37.208 230.867 37.1653 230.909 37.144C231.059 37.1013 231.229 37.016 231.421 36.888C231.613 36.76 231.688 36.6 231.645 36.408C231.645 36.0453 231.453 35.64 231.069 35.192C230.685 34.744 230.184 34.424 229.565 34.232C229.267 34.1253 228.979 34.072 228.701 34.072C228.424 34.072 228.157 34.0933 227.901 34.136C227.667 34.1573 227.443 34.1893 227.229 34.232C227.037 34.2747 226.877 34.296 226.749 34.296C226.259 34.1893 225.981 34.4133 225.917 34.968C225.597 35.4587 225.437 36.0027 225.437 36.6C225.459 37.176 225.523 37.7307 225.629 38.264C225.629 38.5627 225.683 38.808 225.789 39C225.917 39.192 226.067 39.3093 226.237 39.352C226.408 39.3947 226.579 39.3627 226.749 39.256C226.941 39.128 227.101 38.904 227.229 38.584L230.301 37.592ZM250.264 31.96V33.432H249.432L248.216 34.392C247.171 34.5413 246.317 34.7547 245.656 35.032C244.995 35.288 244.685 35.6507 244.728 36.12C244.685 36.2267 244.664 36.3547 244.664 36.504C244.664 36.632 244.739 36.696 244.888 36.696L244.248 39.896L243.96 40.248V43.8L243.768 45.592L243.128 46.232L239.48 45.976L238.68 44.888L238.904 44.312L238.776 42.552L239.16 39.32L239.48 36.952C239.48 36.888 239.491 36.8347 239.512 36.792C239.512 36.7493 239.512 36.696 239.512 36.632C239.533 36.568 239.544 36.5147 239.544 36.472C239.651 36.3867 239.715 36.1947 239.736 35.896C239.779 35.5973 239.789 35.4053 239.768 35.32C239.768 35.1707 239.757 35.032 239.736 34.904C239.736 34.776 239.693 34.4987 239.608 34.072C239.587 33.944 239.512 33.7947 239.384 33.624C239.277 33.432 239.16 33.2613 239.032 33.112L239.448 32.12H240.056L243.352 31.512L244.152 31.896C244.088 32.2587 244.077 32.568 244.12 32.824C244.184 33.0587 244.269 33.24 244.376 33.368C244.504 33.496 244.643 33.5813 244.792 33.624C244.941 33.6453 245.069 33.624 245.176 33.56L245.752 33.24C245.859 33.1973 245.891 33.08 245.848 32.888C245.827 32.696 245.837 32.4507 245.88 32.152L249.848 31.448L250.264 31.96Z" fill="#F4DFB0"/>
<defs>
<filter id="filter0_d_34_9" x="0.975731" y="0" width="403.17" height="85" filterUnits="userSpaceOnUse" color-interpolation-filters="sRGB">
<feFlood flood-opacity="0" result="BackgroundImageFix"/>
<feColorMatrix in="SourceAlpha" type="matrix" values="0 0 0 0 0 0 0 0 0 0 0 0 0 0 0 0 0 0 127 0" result="hardAlpha"/>
<feOffset dy="4"/>
<feGaussianBlur stdDeviation="2"/>
<feComposite in2="hardAlpha" operator="out"/>
<feColorMatrix type="matrix" values="0 0 0 0 0 0 0 0 0 0 0 0 0 0 0 0 0 0 0.25 0"/>
<feBlend mode="normal" in2="BackgroundImageFix" result="effect1_dropShadow_34_9"/>
<feBlend mode="normal" in="SourceGraphic" in2="effect1_dropShadow_34_9" result="shape"/>
</filter>
</defs>
</svg>
