<svg width="405" height="85" viewBox="0 0 405 85" fill="none" xmlns="http://www.w3.org/2000/svg">
<g filter="url(#filter0_d_34_15)">
<path d="M64.303 2H396.121L340.818 75.0001L9 75L64.303 2Z" fill="#8086A8"/>
<path d="M64.303 2H396.121L340.818 75.0001L9 75L64.303 2Z" stroke="#F4DFB0" stroke-width="4"/>
</g>
<path d="M155.26 26.008V28.504C155.004 29.5067 154.79 30.392 154.62 31.16C154.47 31.9067 154.353 32.6 154.268 33.24C154.182 33.88 154.129 34.488 154.108 35.064C154.108 35.64 154.129 36.248 154.172 36.888C154.214 37.656 154.193 38.3493 154.108 38.968C154.022 39.5867 153.937 40.152 153.852 40.664C153.788 41.176 153.745 41.6667 153.724 42.136C153.702 42.584 153.766 43.0427 153.916 43.512L154.076 44.312L153.532 45.24L149.276 46.072L148.124 45.336C148.145 45.2507 148.262 45.1333 148.476 44.984C148.71 44.8133 148.828 44.6427 148.828 44.472C148.828 44.216 148.828 44.0347 148.828 43.928C148.828 43.8213 148.806 43.6507 148.764 43.416C148.721 43.3093 148.774 42.968 148.924 42.392C149.094 41.7947 149.169 40.984 149.148 39.96C149.148 39.448 149.148 39.0747 149.148 38.84C149.169 38.584 149.18 38.424 149.18 38.36C149.201 38.2747 149.201 38.2427 149.18 38.264C149.18 38.2853 149.158 38.296 149.116 38.296C149.137 38.1253 149.169 37.9333 149.212 37.72C149.254 37.4853 149.297 37.2507 149.34 37.016C149.382 36.888 149.414 36.76 149.436 36.632C149.457 36.504 149.478 36.3653 149.5 36.216C149.564 36.152 149.553 36.024 149.468 35.832C149.404 35.64 149.329 35.4907 149.244 35.384C149.18 35.2773 149.148 35.2347 149.148 35.256C149.148 35.256 149.169 35.256 149.212 35.256C149.254 35.256 149.318 35.2133 149.404 35.128C149.489 35.0213 149.574 34.8187 149.66 34.52L149.436 33.112C149.478 33.112 149.51 33.1227 149.532 33.144C149.574 33.1653 149.596 33.1547 149.596 33.112C149.596 33.048 149.585 32.9307 149.564 32.76C149.542 32.5893 149.5 32.3227 149.436 31.96C149.35 31.256 149.34 30.84 149.404 30.712C149.468 30.5627 149.564 30.4987 149.692 30.52C149.798 30.4347 149.884 30.3493 149.948 30.264C150.033 30.1787 150.086 30.072 150.108 29.944C150.129 29.816 150.118 29.6453 150.076 29.432C150.054 29.1973 149.99 28.8987 149.884 28.536C149.777 28.216 149.788 27.896 149.916 27.576C150.044 27.256 150.118 26.936 150.14 26.616L150.812 25.944C151.11 25.944 151.505 25.944 151.996 25.944C152.486 25.9227 152.913 25.9013 153.276 25.88C154.044 25.816 154.598 25.784 154.94 25.784L155.26 26.008ZM163.487 46.328C163.423 46.328 163.284 46.3387 163.071 46.36C162.879 46.36 162.665 46.3707 162.431 46.392C162.196 46.392 161.972 46.4027 161.759 46.424C161.545 46.424 161.396 46.424 161.311 46.424L160.607 46.488L160.063 46.104C160.041 45.784 160.063 45.4107 160.127 44.984C160.212 44.5573 160.255 44.2267 160.255 43.992C160.511 43.992 160.564 43.736 160.415 43.224C160.244 42.712 160.18 42.3067 160.223 42.008C160.244 41.6667 160.297 41.3253 160.383 40.984C160.468 40.6213 160.479 40.3867 160.415 40.28C160.372 40.152 160.319 40.0133 160.255 39.864C160.191 39.6933 160.137 39.5013 160.095 39.288L160.479 37.208C160.479 36.056 160.489 35.1707 160.511 34.552C160.553 33.9333 160.585 33.4747 160.607 33.176C160.649 32.8773 160.692 32.696 160.735 32.632C160.799 32.5467 160.841 32.472 160.863 32.408C160.905 32.344 160.927 32.2373 160.927 32.088C160.948 31.9387 160.948 31.64 160.927 31.192L161.599 30.84C161.961 30.8613 162.399 30.9253 162.911 31.032C163.444 31.1173 163.956 31.2133 164.447 31.32C164.703 31.3627 164.927 31.4053 165.119 31.448C165.311 31.4693 165.481 31.5013 165.631 31.544L166.079 32.152C165.673 32.4293 165.407 32.6107 165.279 32.696C165.151 32.7813 165.14 32.9627 165.247 33.24C165.631 33.5813 165.961 33.688 166.239 33.56C166.537 33.432 166.74 33.2293 166.847 32.952L168.927 32.44H170.143L170.687 32.632C171.199 32.8027 171.711 32.984 172.223 33.176C172.756 33.368 173.193 33.5173 173.535 33.624L174.111 35.032L174.079 35.416C174.121 36.0347 174.153 36.632 174.175 37.208C174.217 37.7627 174.217 38.4453 174.175 39.256C174.153 39.768 174.132 40.2907 174.111 40.824C174.089 41.336 174.068 41.8267 174.047 42.296C174.047 42.7653 174.047 43.1813 174.047 43.544C174.047 43.8853 174.047 44.1413 174.047 44.312C174.047 44.3333 174.068 44.4187 174.111 44.568C174.175 44.7173 174.26 44.8773 174.367 45.048L174.143 45.4L173.535 45.688C173.236 45.7093 172.852 45.7627 172.383 45.848C171.935 45.9333 171.561 45.976 171.263 45.976C171.135 45.976 171.028 45.9333 170.943 45.848C170.857 45.7413 170.665 45.6987 170.367 45.72L169.919 45.336C169.961 45.0587 169.972 44.8347 169.951 44.664C169.929 44.472 169.897 44.312 169.855 44.184C169.812 44.0347 169.769 43.9067 169.727 43.8C169.684 43.6933 169.663 43.5867 169.663 43.48C169.684 43.16 169.716 42.808 169.759 42.424C169.801 42.1253 169.844 41.784 169.887 41.4C169.951 40.9947 170.025 40.6 170.111 40.216C170.153 39.9813 170.175 39.6827 170.175 39.32C170.175 38.936 170.175 38.5627 170.175 38.2C170.175 37.816 170.175 37.4533 170.175 37.112C170.175 36.7707 170.185 36.5147 170.207 36.344L169.279 34.712C169.193 34.6907 169.108 34.6693 169.023 34.648C168.937 34.6267 168.841 34.5947 168.735 34.552C168.564 34.5093 168.393 34.52 168.223 34.584C168.073 34.648 167.924 34.7227 167.775 34.808C167.625 34.8933 167.487 34.9787 167.359 35.064C167.231 35.1493 167.113 35.192 167.007 35.192C167.007 35.256 166.889 35.2027 166.655 35.032C166.441 34.84 166.26 34.6587 166.111 34.488C165.748 34.1893 165.481 34.136 165.311 34.328C165.161 34.4987 165.033 34.7333 164.927 35.032C164.948 35.2667 164.98 35.4267 165.023 35.512C165.087 35.5973 165.151 35.6613 165.215 35.704C165.3 35.7253 165.375 35.7253 165.439 35.704C165.332 35.7893 165.247 35.9493 165.183 36.184C165.119 36.3973 165.065 36.6427 165.023 36.92C165.001 37.176 164.991 37.4533 164.991 37.752C165.012 38.0293 165.044 38.2853 165.087 38.52C165.129 38.776 165.097 39.224 164.991 39.864C164.905 40.504 164.884 41.24 164.927 42.072C164.927 42.392 164.916 42.7333 164.895 43.096C164.873 43.4373 164.852 43.7787 164.831 44.12C164.809 44.44 164.788 44.7387 164.767 45.016C164.745 45.272 164.735 45.4747 164.735 45.624V45.72C164.329 46.0613 163.913 46.264 163.487 46.328ZM190.499 39.736C190.285 39.8853 189.987 39.96 189.603 39.96C189.304 39.96 189.048 39.96 188.835 39.96C188.643 39.96 188.483 39.9493 188.355 39.928L187.459 40.504C187.395 40.5253 187.277 40.5573 187.107 40.6C187 40.6427 186.861 40.6853 186.691 40.728C186.541 40.7707 186.36 40.8347 186.147 40.92C185.72 41.0267 185.325 41.1653 184.963 41.336C184.621 41.5067 184.301 41.688 184.003 41.88C183.853 42.0507 183.672 42.1573 183.459 42.2C183.245 42.2213 183.149 42.2747 183.171 42.36C183.064 42.6587 182.979 42.9253 182.915 43.16C182.851 43.3947 182.819 43.64 182.819 43.896C182.819 44.1947 182.819 44.4613 182.819 44.696C182.819 44.9307 182.797 45.112 182.755 45.24L186.403 43.864C186.637 43.9067 186.819 43.928 186.947 43.928C187.075 43.928 187.192 43.928 187.299 43.928C187.405 43.9493 187.523 43.928 187.651 43.864C187.779 43.7787 187.96 43.6827 188.195 43.576L188.931 43.608L190.947 44.216L191.267 44.664C191.309 44.856 191.395 45.1333 191.523 45.496C191.672 45.8373 191.779 46.1787 191.843 46.52C191.885 46.6907 191.928 46.8827 191.971 47.096C192.035 47.3307 192.109 47.5973 192.195 47.896C192.344 48.4933 192.472 48.824 192.579 48.888L192.291 49.72L192.579 50.52L192.419 51.128L190.691 52.44C190.605 52.4187 190.531 52.3973 190.467 52.376C190.403 52.3547 190.339 52.3333 190.275 52.312C190.168 52.2693 190.061 52.2373 189.955 52.216C189.848 52.1947 189.763 52.184 189.699 52.184L187.203 53.336C187.117 53.3147 187.021 53.2933 186.915 53.272C186.829 53.272 186.733 53.2507 186.627 53.208C186.435 53.1653 186.179 53.112 185.859 53.048C185.56 53.0053 185.208 52.9413 184.803 52.856C184.397 52.7707 183.928 52.6853 183.395 52.6C182.883 52.5147 182.381 52.44 181.891 52.376C181.421 52.312 180.984 52.2693 180.579 52.248C180.195 52.2267 179.928 52.2267 179.779 52.248L178.339 51.96L178.051 51.704L177.539 49.624L177.699 48.984C178.211 48.728 178.648 48.3653 179.011 47.896C179.373 47.448 179.576 46.8827 179.619 46.2C179.64 45.8373 179.651 45.5387 179.651 45.304C179.651 45.0693 179.651 44.8773 179.651 44.728C179.651 44.5787 179.64 44.4613 179.619 44.376C179.619 44.2907 179.619 44.1947 179.619 44.088L179.875 42.648L180.355 42.232L180.515 40.6C180.451 40.5147 180.355 40.3867 180.227 40.216C180.12 40.024 179.992 39.8213 179.843 39.608C179.693 39.3947 179.544 39.192 179.395 39C179.267 38.7867 179.149 38.6053 179.043 38.456L179.139 36.792L180.611 33.752L181.443 32.536L184.579 31.096L188.003 32.472L188.803 32.088C188.867 32.088 188.931 32.0773 188.995 32.056C189.059 32.0347 189.144 32.024 189.251 32.024C189.357 32.0027 189.496 31.9707 189.667 31.928C189.987 31.8853 190.264 31.768 190.499 31.576C190.733 31.384 190.957 31.128 191.171 30.808C191.341 31.0213 191.501 31.2133 191.651 31.384C191.8 31.5547 191.939 31.7147 192.067 31.864C192.152 31.9493 192.227 32.0347 192.291 32.12C192.355 32.184 192.419 32.248 192.483 32.312V33.976L192.163 34.296L189.923 34.776L190.211 35.8L190.307 37.272L190.851 38.68L190.499 39.736ZM182.979 39.512L186.179 38.744C186.328 38.5947 186.435 38.3707 186.499 38.072C186.584 37.752 186.477 37.4427 186.179 37.144L185.347 35.672L184.387 33.752H183.235L183.171 34.904C182.616 34.7973 182.253 35.0533 182.083 35.672C181.976 35.992 181.891 36.2587 181.827 36.472C181.763 36.664 181.72 36.8347 181.699 36.984L182.979 39.512ZM182.307 50.456L185.539 50.904C186.733 51.0107 187.512 51.0107 187.875 50.904C187.896 50.7973 187.907 50.68 187.907 50.552C187.928 50.4453 187.928 50.3387 187.907 50.232C187.907 50.0187 187.811 49.7627 187.619 49.464C187.427 49.1867 187.331 48.9093 187.331 48.632C187.331 48.5253 187.363 48.4613 187.427 48.44C187.491 48.44 187.501 48.3867 187.459 48.28C187.437 48.1947 187.416 48.0453 187.395 47.832C187.395 47.6187 187.384 47.3947 187.363 47.16C187.341 46.9253 187.309 46.7013 187.267 46.488C187.245 46.2747 187.203 46.136 187.139 46.072C187.011 46.1147 186.797 46.1893 186.499 46.296C186.221 46.4027 185.912 46.5093 185.571 46.616C185.251 46.7227 184.941 46.8293 184.643 46.936C184.344 47.0213 184.131 47.0747 184.003 47.096C183.811 47.48 183.555 47.7147 183.235 47.8C182.936 47.9067 182.605 48.0453 182.243 48.216C182.307 48.3867 182.253 48.5573 182.083 48.728C181.933 48.8347 181.539 49.0267 180.899 49.304C180.237 49.6027 179.864 49.8907 179.779 50.168L182.307 50.456ZM208.545 31.96V33.432H207.713L206.497 34.392C205.452 34.5413 204.599 34.7547 203.937 35.032C203.276 35.288 202.967 35.6507 203.009 36.12C202.967 36.2267 202.945 36.3547 202.945 36.504C202.945 36.632 203.02 36.696 203.169 36.696L202.529 39.896L202.241 40.248V43.8L202.049 45.592L201.409 46.232L197.761 45.976L196.961 44.888L197.185 44.312L197.057 42.552L197.441 39.32L197.761 36.952C197.761 36.888 197.772 36.8347 197.793 36.792C197.793 36.7493 197.793 36.696 197.793 36.632C197.815 36.568 197.825 36.5147 197.825 36.472C197.932 36.3867 197.996 36.1947 198.017 35.896C198.06 35.5973 198.071 35.4053 198.049 35.32C198.049 35.1707 198.039 35.032 198.017 34.904C198.017 34.776 197.975 34.4987 197.889 34.072C197.868 33.944 197.793 33.7947 197.665 33.624C197.559 33.432 197.441 33.2613 197.313 33.112L197.729 32.12H198.337L201.633 31.512L202.433 31.896C202.369 32.2587 202.359 32.568 202.401 32.824C202.465 33.0587 202.551 33.24 202.657 33.368C202.785 33.496 202.924 33.5813 203.073 33.624C203.223 33.6453 203.351 33.624 203.457 33.56L204.033 33.24C204.14 33.1973 204.172 33.08 204.129 32.888C204.108 32.696 204.119 32.4507 204.161 32.152L208.129 31.448L208.545 31.96ZM223.756 38.68C223.287 38.616 222.871 38.7013 222.508 38.936C222.38 39 222.252 39.064 222.124 39.128C221.996 39.1707 221.868 39.2133 221.74 39.256C221.676 39.2773 221.612 39.2987 221.548 39.32C221.484 39.3413 221.431 39.3627 221.388 39.384L216.94 40.728C215.703 40.4507 215.265 40.6533 215.628 41.336C215.692 41.4853 215.777 41.7093 215.884 42.008C215.991 42.3067 216.076 42.52 216.14 42.648C216.417 42.7547 216.705 42.9253 217.004 43.16C217.303 43.3733 217.58 43.5013 217.836 43.544L218.412 43.48C218.561 43.48 218.764 43.4693 219.02 43.448C219.297 43.4267 219.564 43.3947 219.82 43.352C220.097 43.288 220.343 43.2133 220.556 43.128C220.791 43.0427 220.951 42.936 221.036 42.808C221.1 42.7013 221.196 42.6267 221.324 42.584C221.452 42.52 221.58 42.4667 221.708 42.424C221.793 42.4027 221.868 42.392 221.932 42.392C222.017 42.3707 222.113 42.3493 222.22 42.328L222.572 43.576L222.188 44.312C222.167 44.3547 222.092 44.408 221.964 44.472C221.857 44.5147 221.729 44.5787 221.58 44.664C221.431 44.7493 221.281 44.8347 221.132 44.92C221.004 44.984 220.908 45.048 220.844 45.112C220.801 45.1547 220.684 45.176 220.492 45.176C220.321 45.176 220.119 45.176 219.884 45.176C219.671 45.176 219.447 45.1867 219.212 45.208C218.977 45.2293 218.796 45.272 218.668 45.336C218.369 45.4853 218.135 45.5813 217.964 45.624C217.815 45.6667 217.687 45.6987 217.58 45.72C217.473 45.7627 217.399 45.752 217.356 45.688C217.313 45.6667 217.239 45.656 217.132 45.656C217.068 45.656 216.983 45.656 216.876 45.656C216.769 45.656 216.663 45.6453 216.556 45.624C216.279 45.6027 216.055 45.592 215.884 45.592C215.713 45.5707 215.607 45.56 215.564 45.56L212.492 44.056C212.428 43.416 212.129 43.096 211.596 43.096C211.489 43.096 211.361 43.0107 211.212 42.84C211.063 42.648 210.935 42.4453 210.828 42.232C210.743 42.1253 210.668 42.008 210.604 41.88C210.54 41.7307 210.476 41.5707 210.412 41.4L210.124 37.752L210.412 35.608C210.433 35.5227 210.497 35.416 210.604 35.288C210.732 35.0747 210.892 34.7547 211.084 34.328C211.169 34.136 211.34 33.9547 211.596 33.784C211.852 33.6133 212.119 33.464 212.396 33.336C212.695 33.1867 212.972 33.0587 213.228 32.952C213.505 32.824 213.708 32.7173 213.836 32.632C214.092 32.6747 214.465 32.3973 214.956 31.8C215.084 31.6507 215.244 31.5333 215.436 31.448C215.628 31.3413 215.82 31.256 216.012 31.192C216.119 31.1493 216.236 31.1173 216.364 31.096C216.492 31.0747 216.609 31.0533 216.716 31.032L220.46 31.512C220.673 31.5547 220.897 31.6187 221.132 31.704C221.303 31.7893 221.473 31.896 221.644 32.024C221.815 32.152 221.953 32.3013 222.06 32.472C222.209 32.8347 222.423 33.1333 222.7 33.368C222.977 33.5813 223.201 33.7307 223.372 33.816L224.556 35.928L224.3 38.008L223.756 38.68ZM219.02 37.592L219.276 37.4C219.34 37.3573 219.404 37.3147 219.468 37.272C219.532 37.208 219.585 37.1653 219.628 37.144C219.777 37.1013 219.948 37.016 220.14 36.888C220.332 36.76 220.407 36.6 220.364 36.408C220.364 36.0453 220.172 35.64 219.788 35.192C219.404 34.744 218.903 34.424 218.284 34.232C217.985 34.1253 217.697 34.072 217.42 34.072C217.143 34.072 216.876 34.0933 216.62 34.136C216.385 34.1573 216.161 34.1893 215.948 34.232C215.756 34.2747 215.596 34.296 215.468 34.296C214.977 34.1893 214.7 34.4133 214.636 34.968C214.316 35.4587 214.156 36.0027 214.156 36.6C214.177 37.176 214.241 37.7307 214.348 38.264C214.348 38.5627 214.401 38.808 214.508 39C214.636 39.192 214.785 39.3093 214.956 39.352C215.127 39.3947 215.297 39.3627 215.468 39.256C215.66 39.128 215.82 38.904 215.948 38.584L219.02 37.592ZM226.855 33.848L228.231 31.64C228.316 31.64 228.401 31.64 228.487 31.64C228.572 31.6187 228.668 31.5973 228.775 31.576C228.945 31.5547 229.169 31.5227 229.447 31.48C229.724 31.4373 230.044 31.3947 230.407 31.352C231.857 31.1813 232.391 30.8293 232.007 30.296L236.583 29.624H237.767L237.991 29.88L238.119 30.936L237.575 31.352L235.975 31.384L233.895 32.408L231.591 33.144L231.207 34.008L231.943 35.8L232.839 35.928L233.255 36.856L234.023 36.792L234.471 37.336C234.663 37.272 234.855 37.2293 235.047 37.208C235.239 37.1653 235.409 37.1653 235.559 37.208C235.665 37.2293 235.783 37.2507 235.911 37.272C236.039 37.272 236.188 37.2933 236.359 37.336C236.572 37.4 236.721 37.4747 236.807 37.56C236.892 37.624 236.967 37.688 237.031 37.752C237.095 37.7947 237.169 37.8373 237.255 37.88C237.34 37.9227 237.489 37.944 237.703 37.944C237.767 38.072 237.884 38.2 238.055 38.328C238.247 38.456 238.449 38.584 238.663 38.712C238.897 38.84 239.121 38.968 239.335 39.096C239.569 39.224 239.74 39.352 239.847 39.48C239.889 39.5227 239.911 39.5547 239.911 39.576C239.932 39.5973 239.964 39.6293 240.007 39.672L240.199 41.208L239.495 43.128L239.303 44.472L237.735 45.272L235.143 46.296L233.575 46.072C233.02 45.9867 232.529 45.9867 232.103 46.072C231.676 46.1573 231.281 46.2 230.919 46.2H227.399L227.015 45.24L227.271 44.312L231.911 43.832L233.447 43.64L235.367 41.592L235.079 40.664L233.671 40.408L231.207 39.736L230.791 39.96L229.447 39.352L228.583 38.776L227.591 36.6L226.855 35.16V33.848ZM259.315 44.536L254.835 45.08L253.907 43.576C253.907 43.2987 253.694 43.3093 253.267 43.608C253.161 43.672 253.054 43.7787 252.947 43.928C252.841 44.0773 252.734 44.2267 252.627 44.376C252.563 44.4613 252.499 44.5467 252.435 44.632C252.371 44.7173 252.307 44.8133 252.243 44.92C251.582 45.4107 250.899 45.7307 250.195 45.88C249.513 46.0293 248.926 45.9333 248.435 45.592C248.073 45.5493 247.827 45.464 247.699 45.336C247.635 45.2933 247.55 45.2187 247.443 45.112L245.395 44.984L244.531 44.568L243.731 42.552L243.891 41.88L243.187 39.064L244.531 36.824L245.619 35.832C246.025 35.6187 246.494 35.448 247.027 35.32C247.561 35.192 248.094 35.1067 248.627 35.064C249.161 35 249.673 34.9893 250.163 35.032C250.654 35.0533 251.059 35.1173 251.379 35.224C251.379 35.5653 251.486 35.7893 251.699 35.896C251.913 36.0027 252.329 36.12 252.947 36.248C253.161 35.8853 253.267 35.448 253.267 34.936C253.267 34.4027 253.171 33.848 252.979 33.272L252.467 31.64C252.297 31.576 252.03 31.4693 251.667 31.32C251.326 31.1493 251.038 31.0107 250.803 30.904L249.427 31.128L248.019 31.416L247.699 30.904L248.051 30.072L248.275 29.56L248.723 29.464L250.195 29.208L251.507 29.656L252.947 29.432L255.731 30.264L256.915 32.056L257.331 37.144L257.235 38.744L257.939 42.488L258.355 42.68H259.347L259.763 43.8L259.315 44.536ZM247.571 39.32C247.465 39.8747 247.465 40.344 247.571 40.728C247.699 41.112 247.902 41.432 248.179 41.688L248.659 42.68C249.043 42.808 249.406 42.904 249.747 42.968C250.089 43.032 250.441 43.0427 250.803 43C251.187 42.936 251.582 42.8187 251.987 42.648C252.414 42.456 252.905 42.1787 253.459 41.816L253.523 40.184L252.947 37.336C252.649 37.2293 252.382 37.176 252.147 37.176C251.934 37.176 251.721 37.1973 251.507 37.24C251.251 37.304 250.953 37.3573 250.611 37.4C250.27 37.4427 249.918 37.496 249.555 37.56C249.214 37.6027 248.894 37.6667 248.595 37.752C248.318 37.816 248.115 37.912 247.987 38.04L247.571 39.32Z" fill="#F4DFB0"/>
<defs>
<filter id="filter0_d_34_15" x="0.975739" y="0" width="403.17" height="85" filterUnits="userSpaceOnUse" color-interpolation-filters="sRGB">
<feFlood flood-opacity="0" result="BackgroundImageFix"/>
<feColorMatrix in="SourceAlpha" type="matrix" values="0 0 0 0 0 0 0 0 0 0 0 0 0 0 0 0 0 0 127 0" result="hardAlpha"/>
<feOffset dy="4"/>
<feGaussianBlur stdDeviation="2"/>
<feComposite in2="hardAlpha" operator="out"/>
<feColorMatrix type="matrix" values="0 0 0 0 0 0 0 0 0 0 0 0 0 0 0 0 0 0 0.25 0"/>
<feBlend mode="normal" in2="BackgroundImageFix" result="effect1_dropShadow_34_15"/>
<feBlend mode="normal" in="SourceGraphic" in2="effect1_dropShadow_34_15" result="shape"/>
</filter>
</defs>
</svg>
