<svg width="633" height="132" viewBox="0 0 633 132" fill="none" xmlns="http://www.w3.org/2000/svg">
<g filter="url(#filter0_d_172_2)">
<path d="M101.264 5H618.848L532.584 118.869L15 118.868L101.264 5Z" fill="#8086A8"/>
<path d="M101.264 5H618.848L532.584 118.869L15 118.868L101.264 5Z" stroke="#F4DFB0" stroke-width="10"/>
</g>
<path d="M126.773 39.016V44.008C126.261 46.0133 125.834 47.784 125.493 49.32C125.194 50.8133 124.96 52.2 124.789 53.48C124.618 54.76 124.512 55.976 124.469 57.128C124.469 58.28 124.512 59.496 124.597 60.776C124.682 62.312 124.64 63.6987 124.469 64.936C124.298 66.1733 124.128 67.304 123.957 68.328C123.829 69.352 123.744 70.3333 123.701 71.272C123.658 72.168 123.786 73.0853 124.085 74.024L124.405 75.624L123.317 77.48L114.805 79.144L112.501 77.672C112.544 77.5013 112.778 77.2667 113.205 76.968C113.674 76.6267 113.909 76.2853 113.909 75.944C113.909 75.432 113.909 75.0693 113.909 74.856C113.909 74.6427 113.866 74.3013 113.781 73.832C113.696 73.6187 113.802 72.936 114.101 71.784C114.442 70.5893 114.592 68.968 114.549 66.92C114.549 65.896 114.549 65.1493 114.549 64.68C114.592 64.168 114.613 63.848 114.613 63.72C114.656 63.5493 114.656 63.4853 114.613 63.528C114.613 63.5707 114.57 63.592 114.485 63.592C114.528 63.2507 114.592 62.8667 114.677 62.44C114.762 61.9707 114.848 61.5013 114.933 61.032C115.018 60.776 115.082 60.52 115.125 60.264C115.168 60.008 115.21 59.7307 115.253 59.432C115.381 59.304 115.36 59.048 115.189 58.664C115.061 58.28 114.912 57.9813 114.741 57.768C114.613 57.5547 114.549 57.4693 114.549 57.512C114.549 57.512 114.592 57.512 114.677 57.512C114.762 57.512 114.89 57.4267 115.061 57.256C115.232 57.0427 115.402 56.6373 115.573 56.04L115.125 53.224C115.21 53.224 115.274 53.2453 115.317 53.288C115.402 53.3307 115.445 53.3093 115.445 53.224C115.445 53.096 115.424 52.8613 115.381 52.52C115.338 52.1787 115.253 51.6453 115.125 50.92C114.954 49.512 114.933 48.68 115.061 48.424C115.189 48.1253 115.381 47.9973 115.637 48.04C115.85 47.8693 116.021 47.6987 116.149 47.528C116.32 47.3573 116.426 47.144 116.469 46.888C116.512 46.632 116.49 46.2907 116.405 45.864C116.362 45.3947 116.234 44.7973 116.021 44.072C115.808 43.432 115.829 42.792 116.085 42.152C116.341 41.512 116.49 40.872 116.533 40.232L117.877 38.888C118.474 38.888 119.264 38.888 120.245 38.888C121.226 38.8453 122.08 38.8027 122.805 38.76C124.341 38.632 125.45 38.568 126.133 38.568L126.773 39.016ZM143.227 79.656C143.099 79.656 142.822 79.6773 142.395 79.72C142.011 79.72 141.584 79.7413 141.115 79.784C140.646 79.784 140.198 79.8053 139.771 79.848C139.344 79.848 139.046 79.848 138.875 79.848L137.467 79.976L136.379 79.208C136.336 78.568 136.379 77.8213 136.507 76.968C136.678 76.1147 136.763 75.4533 136.763 74.984C137.275 74.984 137.382 74.472 137.083 73.448C136.742 72.424 136.614 71.6133 136.699 71.016C136.742 70.3333 136.848 69.6507 137.019 68.968C137.19 68.2427 137.211 67.7733 137.083 67.56C136.998 67.304 136.891 67.0267 136.763 66.728C136.635 66.3867 136.528 66.0027 136.443 65.576L137.211 61.416C137.211 59.112 137.232 57.3413 137.275 56.104C137.36 54.8667 137.424 53.9493 137.467 53.352C137.552 52.7547 137.638 52.392 137.723 52.264C137.851 52.0933 137.936 51.944 137.979 51.816C138.064 51.688 138.107 51.4747 138.107 51.176C138.15 50.8773 138.15 50.28 138.107 49.384L139.451 48.68C140.176 48.7227 141.051 48.8507 142.075 49.064C143.142 49.2347 144.166 49.4267 145.147 49.64C145.659 49.7253 146.107 49.8107 146.491 49.896C146.875 49.9387 147.216 50.0027 147.515 50.088L148.411 51.304C147.6 51.8587 147.067 52.2213 146.811 52.392C146.555 52.5627 146.534 52.9253 146.747 53.48C147.515 54.1627 148.176 54.376 148.731 54.12C149.328 53.864 149.734 53.4587 149.947 52.904L154.107 51.88H156.539L157.627 52.264C158.651 52.6053 159.675 52.968 160.699 53.352C161.766 53.736 162.64 54.0347 163.323 54.248L164.475 57.064L164.411 57.832C164.496 59.0693 164.56 60.264 164.603 61.416C164.688 62.5253 164.688 63.8907 164.603 65.512C164.56 66.536 164.518 67.5813 164.475 68.648C164.432 69.672 164.39 70.6533 164.347 71.592C164.347 72.5307 164.347 73.3627 164.347 74.088C164.347 74.7707 164.347 75.2827 164.347 75.624C164.347 75.6667 164.39 75.8373 164.475 76.136C164.603 76.4347 164.774 76.7547 164.987 77.096L164.539 77.8L163.323 78.376C162.726 78.4187 161.958 78.5253 161.019 78.696C160.123 78.8667 159.376 78.952 158.779 78.952C158.523 78.952 158.31 78.8667 158.139 78.696C157.968 78.4827 157.584 78.3973 156.987 78.44L156.091 77.672C156.176 77.1173 156.198 76.6693 156.155 76.328C156.112 75.944 156.048 75.624 155.963 75.368C155.878 75.0693 155.792 74.8133 155.707 74.6C155.622 74.3867 155.579 74.1733 155.579 73.96C155.622 73.32 155.686 72.616 155.771 71.848C155.856 71.2507 155.942 70.568 156.027 69.8C156.155 68.9893 156.304 68.2 156.475 67.432C156.56 66.9627 156.603 66.3653 156.603 65.64C156.603 64.872 156.603 64.1253 156.603 63.4C156.603 62.632 156.603 61.9067 156.603 61.224C156.603 60.5413 156.624 60.0293 156.667 59.688L154.811 56.424C154.64 56.3813 154.47 56.3387 154.299 56.296C154.128 56.2533 153.936 56.1893 153.723 56.104C153.382 56.0187 153.04 56.04 152.699 56.168C152.4 56.296 152.102 56.4453 151.803 56.616C151.504 56.7867 151.227 56.9573 150.971 57.128C150.715 57.2987 150.48 57.384 150.267 57.384C150.267 57.512 150.032 57.4053 149.563 57.064C149.136 56.68 148.774 56.3173 148.475 55.976C147.75 55.3787 147.216 55.272 146.875 55.656C146.576 55.9973 146.32 56.4667 146.107 57.064C146.15 57.5333 146.214 57.8533 146.299 58.024C146.427 58.1947 146.555 58.3227 146.683 58.408C146.854 58.4507 147.003 58.4507 147.131 58.408C146.918 58.5787 146.747 58.8987 146.619 59.368C146.491 59.7947 146.384 60.2853 146.299 60.84C146.256 61.352 146.235 61.9067 146.235 62.504C146.278 63.0587 146.342 63.5707 146.427 64.04C146.512 64.552 146.448 65.448 146.235 66.728C146.064 68.008 146.022 69.48 146.107 71.144C146.107 71.784 146.086 72.4667 146.043 73.192C146 73.8747 145.958 74.5573 145.915 75.24C145.872 75.88 145.83 76.4773 145.787 77.032C145.744 77.544 145.723 77.9493 145.723 78.248V78.44C144.912 79.1227 144.08 79.528 143.227 79.656ZM176.835 39.656C176.92 39.3147 176.963 38.9947 176.963 38.696C177.006 38.3547 177.048 38.0133 177.091 37.672C177.091 37.3733 177.091 37.1173 177.091 36.904C177.134 36.6907 177.155 36.4987 177.155 36.328L177.475 35.624C177.603 35.5813 177.774 35.56 177.987 35.56C178.2 35.56 178.456 35.5387 178.755 35.496C179.651 35.4533 180.227 35.3467 180.483 35.176C180.483 35.1333 180.59 35.048 180.803 34.92C180.931 34.792 181.038 34.7067 181.123 34.664C181.166 34.664 181.315 34.6853 181.571 34.728C181.827 34.7707 182.168 34.856 182.595 34.984C183.32 35.1547 183.832 35.24 184.131 35.24C184.515 35.24 184.728 35.2187 184.771 35.176C184.814 35.1333 184.942 35.1333 185.155 35.176L185.731 36.264L186.307 39.528L184.963 41.768C184.92 41.8107 184.878 41.8533 184.835 41.896C184.835 41.9387 184.792 41.9813 184.707 42.024C184.494 42.152 184.238 42.344 183.939 42.6L183.747 42.792L181.827 42.984C181.571 42.8987 181.272 42.8133 180.931 42.728C180.59 42.6 180.184 42.4507 179.715 42.28C179.246 42.1093 178.84 41.96 178.499 41.832C178.158 41.6613 177.859 41.5333 177.603 41.448L177.283 41.128L176.835 39.656ZM184.771 50.664L184.515 52.968L184.771 53.928L184.387 54.952L184.579 56.424L184.259 57.64L184.451 58.024L184.195 60.904L183.939 66.984C183.939 67.2827 183.896 67.6667 183.811 68.136C183.726 68.5627 183.662 69.032 183.619 69.544C183.576 70.0133 183.576 70.504 183.619 71.016C183.662 71.4853 183.79 71.8907 184.003 72.232C183.96 72.872 183.896 73.6187 183.811 74.472C183.726 75.3253 183.576 76.3067 183.363 77.416C183.022 77.8853 182.659 78.312 182.275 78.696C181.934 79.0373 181.272 79.2293 180.291 79.272C179.736 79.3147 179.182 79.3573 178.627 79.4C178.115 79.4427 177.624 79.5067 177.155 79.592C176.899 79.6347 176.643 79.6773 176.387 79.72C176.131 79.7627 175.854 79.8267 175.555 79.912L173.955 77.864C173.998 77.6507 174.062 77.0747 174.147 76.136C174.275 75.1547 174.382 74.0027 174.467 72.68C174.552 71.3573 174.595 69.9493 174.595 68.456C174.638 66.9627 174.595 65.576 174.467 64.296L174.851 63.08L175.427 60.264L175.619 58.024L176.003 57.256L176.067 56.68L176.451 54.952L176.771 51.432L182.531 49.192L184.771 50.664ZM220.903 52.328V54.696L220.519 55.08L214.695 53.864L209.575 56.232L208.167 59.496C206.887 62.056 205.948 64.3813 205.351 66.472C204.754 68.52 204.818 70.2693 205.543 71.72L207.399 74.92L214.119 73.768L216.935 72.808H222.183L222.823 75.048L215.655 77.096L205.543 79.208L202.471 77.224H197.223L195.239 75.048C194.727 72.616 194.791 70.1627 195.431 67.688C196.071 65.1707 197.031 62.6107 198.311 60.008L205.479 54.824L207.271 51.752L209.319 50.984L210.727 49.832L220.455 51.048L220.903 52.328ZM234.335 39.656C234.42 39.3147 234.463 38.9947 234.463 38.696C234.506 38.3547 234.548 38.0133 234.591 37.672C234.591 37.3733 234.591 37.1173 234.591 36.904C234.634 36.6907 234.655 36.4987 234.655 36.328L234.975 35.624C235.103 35.5813 235.274 35.56 235.487 35.56C235.7 35.56 235.956 35.5387 236.255 35.496C237.151 35.4533 237.727 35.3467 237.983 35.176C237.983 35.1333 238.09 35.048 238.303 34.92C238.431 34.792 238.538 34.7067 238.623 34.664C238.666 34.664 238.815 34.6853 239.071 34.728C239.327 34.7707 239.668 34.856 240.095 34.984C240.82 35.1547 241.332 35.24 241.631 35.24C242.015 35.24 242.228 35.2187 242.271 35.176C242.314 35.1333 242.442 35.1333 242.655 35.176L243.231 36.264L243.807 39.528L242.463 41.768C242.42 41.8107 242.378 41.8533 242.335 41.896C242.335 41.9387 242.292 41.9813 242.207 42.024C241.994 42.152 241.738 42.344 241.439 42.6L241.247 42.792L239.327 42.984C239.071 42.8987 238.772 42.8133 238.431 42.728C238.09 42.6 237.684 42.4507 237.215 42.28C236.746 42.1093 236.34 41.96 235.999 41.832C235.658 41.6613 235.359 41.5333 235.103 41.448L234.783 41.128L234.335 39.656ZM242.271 50.664L242.015 52.968L242.271 53.928L241.887 54.952L242.079 56.424L241.759 57.64L241.951 58.024L241.695 60.904L241.439 66.984C241.439 67.2827 241.396 67.6667 241.311 68.136C241.226 68.5627 241.162 69.032 241.119 69.544C241.076 70.0133 241.076 70.504 241.119 71.016C241.162 71.4853 241.29 71.8907 241.503 72.232C241.46 72.872 241.396 73.6187 241.311 74.472C241.226 75.3253 241.076 76.3067 240.863 77.416C240.522 77.8853 240.159 78.312 239.775 78.696C239.434 79.0373 238.772 79.2293 237.791 79.272C237.236 79.3147 236.682 79.3573 236.127 79.4C235.615 79.4427 235.124 79.5067 234.655 79.592C234.399 79.6347 234.143 79.6773 233.887 79.72C233.631 79.7627 233.354 79.8267 233.055 79.912L231.455 77.864C231.498 77.6507 231.562 77.0747 231.647 76.136C231.775 75.1547 231.882 74.0027 231.967 72.68C232.052 71.3573 232.095 69.9493 232.095 68.456C232.138 66.9627 232.095 65.576 231.967 64.296L232.351 63.08L232.927 60.264L233.119 58.024L233.503 57.256L233.567 56.68L233.951 54.952L234.271 51.432L240.031 49.192L242.271 50.664ZM282.947 76.072L273.987 77.16L272.131 74.152C272.131 73.5973 271.704 73.6187 270.851 74.216C270.638 74.344 270.424 74.5573 270.211 74.856C269.998 75.1547 269.784 75.4533 269.571 75.752C269.443 75.9227 269.315 76.0933 269.187 76.264C269.059 76.4347 268.931 76.6267 268.803 76.84C267.48 77.8213 266.115 78.4613 264.707 78.76C263.342 79.0587 262.168 78.8667 261.187 78.184C260.462 78.0987 259.971 77.928 259.715 77.672C259.587 77.5867 259.416 77.4373 259.203 77.224L255.107 76.968L253.379 76.136L251.779 72.104L252.099 70.76L250.691 65.128L253.379 60.648L255.555 58.664C256.366 58.2373 257.304 57.896 258.371 57.64C259.438 57.384 260.504 57.2133 261.571 57.128C262.638 57 263.662 56.9787 264.643 57.064C265.624 57.1067 266.435 57.2347 267.075 57.448C267.075 58.1307 267.288 58.5787 267.715 58.792C268.142 59.0053 268.974 59.24 270.211 59.496C270.638 58.7707 270.851 57.896 270.851 56.872C270.851 55.8053 270.659 54.696 270.275 53.544L269.251 50.28C268.91 50.152 268.376 49.9387 267.651 49.64C266.968 49.2987 266.392 49.0213 265.923 48.808L263.171 49.256L260.355 49.832L259.715 48.808L260.419 47.144L260.867 46.12L261.763 45.928L264.707 45.416L267.331 46.312L270.211 45.864L275.779 47.528L278.147 51.112L278.979 61.288L278.787 64.488L280.195 71.976L281.027 72.36H283.011L283.843 74.6L282.947 76.072ZM259.459 65.64C259.246 66.7493 259.246 67.688 259.459 68.456C259.715 69.224 260.12 69.864 260.675 70.376L261.635 72.36C262.403 72.616 263.128 72.808 263.811 72.936C264.494 73.064 265.198 73.0853 265.923 73C266.691 72.872 267.48 72.6373 268.291 72.296C269.144 71.912 270.126 71.3573 271.235 70.632L271.363 67.368L270.211 61.672C269.614 61.4587 269.08 61.352 268.611 61.352C268.184 61.352 267.758 61.3947 267.331 61.48C266.819 61.608 266.222 61.7147 265.539 61.8C264.856 61.8853 264.152 61.992 263.427 62.12C262.744 62.2053 262.104 62.3333 261.507 62.504C260.952 62.632 260.547 62.824 260.291 63.08L259.459 65.64ZM311.72 50.92V53.864H310.056L307.624 55.784C305.533 56.0827 303.826 56.5093 302.503 57.064C301.181 57.576 300.562 58.3013 300.648 59.24C300.562 59.4533 300.52 59.7093 300.52 60.008C300.52 60.264 300.669 60.392 300.968 60.392L299.688 66.792L299.112 67.496V74.6L298.728 78.184L297.448 79.464L290.152 78.952L288.552 76.776L289 75.624L288.744 72.104L289.512 65.64L290.152 60.904C290.152 60.776 290.173 60.6693 290.216 60.584C290.216 60.4987 290.216 60.392 290.216 60.264C290.258 60.136 290.28 60.0293 290.28 59.944C290.493 59.7733 290.621 59.3893 290.664 58.792C290.749 58.1947 290.77 57.8107 290.728 57.64C290.728 57.3413 290.706 57.064 290.664 56.808C290.664 56.552 290.578 55.9973 290.408 55.144C290.365 54.888 290.216 54.5893 289.96 54.248C289.746 53.864 289.512 53.5227 289.256 53.224L290.088 51.24H291.304L297.896 50.024L299.496 50.792C299.368 51.5173 299.346 52.136 299.432 52.648C299.56 53.1173 299.73 53.48 299.944 53.736C300.2 53.992 300.477 54.1627 300.776 54.248C301.074 54.2907 301.33 54.248 301.544 54.12L302.696 53.48C302.909 53.3947 302.973 53.16 302.888 52.776C302.845 52.392 302.866 51.9013 302.952 51.304L310.888 49.896L311.72 50.92ZM335.464 54.696L338.216 50.28C338.386 50.28 338.557 50.28 338.728 50.28C338.898 50.2373 339.09 50.1947 339.304 50.152C339.645 50.1093 340.093 50.0453 340.648 49.96C341.202 49.8747 341.842 49.7893 342.568 49.704C345.469 49.3627 346.536 48.6587 345.768 47.592L354.92 46.248H357.288L357.736 46.76L357.992 48.872L356.904 49.704L353.704 49.768L349.544 51.816L344.936 53.288L344.168 55.016L345.64 58.6L347.432 58.856L348.264 60.712L349.8 60.584L350.696 61.672C351.08 61.544 351.464 61.4587 351.848 61.416C352.232 61.3307 352.573 61.3307 352.872 61.416C353.085 61.4587 353.32 61.5013 353.576 61.544C353.832 61.544 354.13 61.5867 354.472 61.672C354.898 61.8 355.197 61.9493 355.368 62.12C355.538 62.248 355.688 62.376 355.816 62.504C355.944 62.5893 356.093 62.6747 356.264 62.76C356.434 62.8453 356.733 62.888 357.16 62.888C357.288 63.144 357.522 63.4 357.864 63.656C358.248 63.912 358.653 64.168 359.08 64.424C359.549 64.68 359.997 64.936 360.424 65.192C360.893 65.448 361.234 65.704 361.448 65.96C361.533 66.0453 361.576 66.1093 361.576 66.152C361.618 66.1947 361.682 66.2587 361.768 66.344L362.152 69.416L360.744 73.256L360.36 75.944L357.224 77.544L352.04 79.592L348.904 79.144C347.794 78.9733 346.813 78.9733 345.96 79.144C345.106 79.3147 344.317 79.4 343.592 79.4H336.552L335.784 77.48L336.296 75.624L345.576 74.664L348.648 74.28L352.488 70.184L351.912 68.328L349.096 67.816L344.168 66.472L343.336 66.92L340.648 65.704L338.92 64.552L336.936 60.2L335.464 57.32V54.696ZM395.329 64.36C394.39 64.232 393.558 64.4027 392.833 64.872C392.577 65 392.321 65.128 392.065 65.256C391.809 65.3413 391.553 65.4267 391.297 65.512C391.169 65.5547 391.041 65.5973 390.913 65.64C390.785 65.6827 390.678 65.7253 390.593 65.768L381.697 68.456C379.222 67.9013 378.347 68.3067 379.073 69.672C379.201 69.9707 379.371 70.4187 379.585 71.016C379.798 71.6133 379.969 72.04 380.097 72.296C380.651 72.5093 381.227 72.8507 381.825 73.32C382.422 73.7467 382.977 74.0027 383.489 74.088L384.641 73.96C384.939 73.96 385.345 73.9387 385.857 73.896C386.411 73.8533 386.945 73.7893 387.457 73.704C388.011 73.576 388.502 73.4267 388.929 73.256C389.398 73.0853 389.718 72.872 389.889 72.616C390.017 72.4027 390.209 72.2533 390.465 72.168C390.721 72.04 390.977 71.9333 391.233 71.848C391.403 71.8053 391.553 71.784 391.681 71.784C391.851 71.7413 392.043 71.6987 392.257 71.656L392.961 74.152L392.193 75.624C392.15 75.7093 392.001 75.816 391.745 75.944C391.531 76.0293 391.275 76.1573 390.977 76.328C390.678 76.4987 390.379 76.6693 390.081 76.84C389.825 76.968 389.633 77.096 389.505 77.224C389.419 77.3093 389.185 77.352 388.801 77.352C388.459 77.352 388.054 77.352 387.585 77.352C387.158 77.352 386.71 77.3733 386.241 77.416C385.771 77.4587 385.409 77.544 385.153 77.672C384.555 77.9707 384.086 78.1627 383.745 78.248C383.446 78.3333 383.19 78.3973 382.977 78.44C382.763 78.5253 382.614 78.504 382.529 78.376C382.443 78.3333 382.294 78.312 382.081 78.312C381.953 78.312 381.782 78.312 381.569 78.312C381.355 78.312 381.142 78.2907 380.929 78.248C380.374 78.2053 379.926 78.184 379.585 78.184C379.243 78.1413 379.03 78.12 378.945 78.12L372.801 75.112C372.673 73.832 372.075 73.192 371.009 73.192C370.795 73.192 370.539 73.0213 370.241 72.68C369.942 72.296 369.686 71.8907 369.473 71.464C369.302 71.2507 369.153 71.016 369.025 70.76C368.897 70.4613 368.769 70.1413 368.641 69.8L368.065 62.504L368.641 58.216C368.683 58.0453 368.811 57.832 369.025 57.576C369.281 57.1493 369.601 56.5093 369.985 55.656C370.155 55.272 370.497 54.9093 371.009 54.568C371.521 54.2267 372.054 53.928 372.609 53.672C373.206 53.3733 373.761 53.1173 374.273 52.904C374.827 52.648 375.233 52.4347 375.489 52.264C376.001 52.3493 376.747 51.7947 377.729 50.6C377.985 50.3013 378.305 50.0667 378.689 49.896C379.073 49.6827 379.457 49.512 379.841 49.384C380.054 49.2987 380.289 49.2347 380.545 49.192C380.801 49.1493 381.035 49.1067 381.249 49.064L388.737 50.024C389.163 50.1093 389.611 50.2373 390.081 50.408C390.422 50.5787 390.763 50.792 391.105 51.048C391.446 51.304 391.723 51.6027 391.937 51.944C392.235 52.6693 392.662 53.2667 393.217 53.736C393.771 54.1627 394.219 54.4613 394.561 54.632L396.929 58.856L396.417 63.016L395.329 64.36ZM385.857 62.184L386.369 61.8C386.497 61.7147 386.625 61.6293 386.753 61.544C386.881 61.416 386.987 61.3307 387.073 61.288C387.371 61.2027 387.713 61.032 388.097 60.776C388.481 60.52 388.63 60.2 388.545 59.816C388.545 59.0907 388.161 58.28 387.393 57.384C386.625 56.488 385.622 55.848 384.385 55.464C383.787 55.2507 383.211 55.144 382.657 55.144C382.102 55.144 381.569 55.1867 381.057 55.272C380.587 55.3147 380.139 55.3787 379.713 55.464C379.329 55.5493 379.009 55.592 378.753 55.592C377.771 55.3787 377.217 55.8267 377.089 56.936C376.449 57.9173 376.129 59.0053 376.129 60.2C376.171 61.352 376.299 62.4613 376.513 63.528C376.513 64.1253 376.619 64.616 376.833 65C377.089 65.384 377.387 65.6187 377.729 65.704C378.07 65.7893 378.411 65.7253 378.753 65.512C379.137 65.256 379.457 64.808 379.713 64.168L385.857 62.184ZM401.526 54.696L404.278 50.28C404.449 50.28 404.619 50.28 404.79 50.28C404.961 50.2373 405.153 50.1947 405.366 50.152C405.707 50.1093 406.155 50.0453 406.71 49.96C407.265 49.8747 407.905 49.7893 408.63 49.704C411.531 49.3627 412.598 48.6587 411.83 47.592L420.982 46.248H423.35L423.798 46.76L424.054 48.872L422.966 49.704L419.766 49.768L415.606 51.816L410.998 53.288L410.23 55.016L411.702 58.6L413.494 58.856L414.326 60.712L415.862 60.584L416.758 61.672C417.142 61.544 417.526 61.4587 417.91 61.416C418.294 61.3307 418.635 61.3307 418.934 61.416C419.147 61.4587 419.382 61.5013 419.638 61.544C419.894 61.544 420.193 61.5867 420.534 61.672C420.961 61.8 421.259 61.9493 421.43 62.12C421.601 62.248 421.75 62.376 421.878 62.504C422.006 62.5893 422.155 62.6747 422.326 62.76C422.497 62.8453 422.795 62.888 423.222 62.888C423.35 63.144 423.585 63.4 423.926 63.656C424.31 63.912 424.715 64.168 425.142 64.424C425.611 64.68 426.059 64.936 426.486 65.192C426.955 65.448 427.297 65.704 427.51 65.96C427.595 66.0453 427.638 66.1093 427.638 66.152C427.681 66.1947 427.745 66.2587 427.83 66.344L428.214 69.416L426.806 73.256L426.422 75.944L423.286 77.544L418.102 79.592L414.966 79.144C413.857 78.9733 412.875 78.9733 412.022 79.144C411.169 79.3147 410.379 79.4 409.654 79.4H402.614L401.846 77.48L402.358 75.624L411.638 74.664L414.71 74.28L418.55 70.184L417.974 68.328L415.158 67.816L410.23 66.472L409.398 66.92L406.71 65.704L404.982 64.552L402.998 60.2L401.526 57.32V54.696ZM440.335 39.656C440.42 39.3147 440.463 38.9947 440.463 38.696C440.506 38.3547 440.548 38.0133 440.591 37.672C440.591 37.3733 440.591 37.1173 440.591 36.904C440.634 36.6907 440.655 36.4987 440.655 36.328L440.975 35.624C441.103 35.5813 441.274 35.56 441.487 35.56C441.7 35.56 441.956 35.5387 442.255 35.496C443.151 35.4533 443.727 35.3467 443.983 35.176C443.983 35.1333 444.09 35.048 444.303 34.92C444.431 34.792 444.538 34.7067 444.623 34.664C444.666 34.664 444.815 34.6853 445.071 34.728C445.327 34.7707 445.668 34.856 446.095 34.984C446.82 35.1547 447.332 35.24 447.631 35.24C448.015 35.24 448.228 35.2187 448.271 35.176C448.314 35.1333 448.442 35.1333 448.655 35.176L449.231 36.264L449.807 39.528L448.463 41.768C448.42 41.8107 448.378 41.8533 448.335 41.896C448.335 41.9387 448.292 41.9813 448.207 42.024C447.994 42.152 447.738 42.344 447.439 42.6L447.247 42.792L445.327 42.984C445.071 42.8987 444.772 42.8133 444.431 42.728C444.09 42.6 443.684 42.4507 443.215 42.28C442.746 42.1093 442.34 41.96 441.999 41.832C441.658 41.6613 441.359 41.5333 441.103 41.448L440.783 41.128L440.335 39.656ZM448.271 50.664L448.015 52.968L448.271 53.928L447.887 54.952L448.079 56.424L447.759 57.64L447.951 58.024L447.695 60.904L447.439 66.984C447.439 67.2827 447.396 67.6667 447.311 68.136C447.226 68.5627 447.162 69.032 447.119 69.544C447.076 70.0133 447.076 70.504 447.119 71.016C447.162 71.4853 447.29 71.8907 447.503 72.232C447.46 72.872 447.396 73.6187 447.311 74.472C447.226 75.3253 447.076 76.3067 446.863 77.416C446.522 77.8853 446.159 78.312 445.775 78.696C445.434 79.0373 444.772 79.2293 443.791 79.272C443.236 79.3147 442.682 79.3573 442.127 79.4C441.615 79.4427 441.124 79.5067 440.655 79.592C440.399 79.6347 440.143 79.6773 439.887 79.72C439.631 79.7627 439.354 79.8267 439.055 79.912L437.455 77.864C437.498 77.6507 437.562 77.0747 437.647 76.136C437.775 75.1547 437.882 74.0027 437.967 72.68C438.052 71.3573 438.095 69.9493 438.095 68.456C438.138 66.9627 438.095 65.576 437.967 64.296L438.351 63.08L438.927 60.264L439.119 58.024L439.503 57.256L439.567 56.68L439.951 54.952L440.271 51.432L446.031 49.192L448.271 50.664ZM487.475 57C487.603 57.7253 487.667 58.3653 487.667 58.92C487.667 59.432 487.646 59.944 487.603 60.456C487.603 60.9253 487.624 61.3947 487.667 61.864C487.752 62.2907 487.923 62.76 488.179 63.272C488.094 63.4427 487.88 63.784 487.539 64.296C487.24 64.7653 487.027 65.256 486.899 65.768C486.814 66.2373 486.75 66.6 486.707 66.856C486.664 67.112 486.622 67.2827 486.579 67.368C486.707 67.4533 486.814 67.624 486.899 67.88C486.942 68.0933 486.899 68.3707 486.771 68.712C486.643 69.0107 486.387 69.4373 486.003 69.992C485.235 71.016 484.808 71.8907 484.723 72.616C484.638 73.2987 484.467 73.832 484.211 74.216C484.126 74.3013 483.848 74.4293 483.379 74.6C482.952 74.7707 482.44 74.984 481.843 75.24C481.246 75.4533 480.648 75.7093 480.051 76.008C479.454 76.3067 478.984 76.6053 478.643 76.904C477.918 77.032 477.278 77.2027 476.723 77.416C476.168 77.6293 475.486 77.7787 474.675 77.864C473.907 78.0347 473.118 78.248 472.307 78.504C471.496 78.7173 471.048 78.824 470.963 78.824C468.958 78.824 467.763 78.888 467.379 79.016C467.038 79.144 466.632 79.208 466.163 79.208L460.339 77.096L457.651 73.192C457.651 72.168 457.608 71.3147 457.523 70.632C457.48 69.9067 457.416 69.288 457.331 68.776C457.246 68.2213 457.182 67.7093 457.139 67.24C457.096 66.7707 457.096 66.2373 457.139 65.64C457.267 65.512 457.459 65.2133 457.715 64.744C457.971 64.232 458.227 63.656 458.483 63.016C458.782 62.376 459.059 61.7147 459.315 61.032C459.614 60.3493 459.827 59.7733 459.955 59.304C460.296 58.3227 460.552 57.4693 460.723 56.744C460.894 55.976 461.022 55.2933 461.107 54.696C461.448 54.4827 461.726 54.248 461.939 53.992C462.152 53.736 462.366 53.5227 462.579 53.352C464.328 52.328 465.843 51.496 467.123 50.856C468.403 50.1733 469.598 49.7467 470.707 49.576L472.627 49.448C472.84 49.4907 473.032 49.5333 473.203 49.576C473.374 49.6187 473.544 49.6613 473.715 49.704C473.971 49.7893 474.206 49.8533 474.419 49.896C474.632 49.896 474.76 49.896 474.803 49.896L476.083 51.88C476.083 52.264 475.998 52.584 475.827 52.84C475.656 53.0533 475.827 53.2027 476.339 53.288C476.894 53.416 477.192 53.5013 477.235 53.544V53.608C477.918 53.608 478.622 53.4587 479.347 53.16C480.072 52.8187 480.798 52.648 481.523 52.648C481.694 52.648 481.992 52.7333 482.419 52.904C482.846 53.032 483.294 53.2027 483.763 53.416C484.232 53.6293 484.659 53.8427 485.043 54.056C485.47 54.2267 485.768 54.3547 485.939 54.44C485.854 55.08 485.875 55.528 486.003 55.784C486.131 56.04 486.302 56.232 486.515 56.36C486.728 56.4453 486.92 56.5307 487.091 56.616C487.304 56.6587 487.432 56.7867 487.475 57ZM476.019 73C476.659 72.5733 477.278 71.208 477.875 68.904C478.216 67.6667 478.494 66.7493 478.707 66.152C478.963 65.512 479.091 64.9147 479.091 64.36C479.091 63.4213 478.771 62.312 478.131 61.032C477.79 60.3493 477.534 59.7733 477.363 59.304C477.192 58.8347 477.064 58.3653 476.979 57.896C476.638 57.7253 476.446 57.4693 476.403 57.128C476.403 56.744 476.232 56.36 475.891 55.976C475.464 55.6347 475.208 55.5067 475.123 55.592C475.038 55.6773 474.952 55.72 474.867 55.72H474.291C473.95 55.72 473.48 55.784 472.883 55.912C472.328 56.04 471.88 56.3387 471.539 56.808C471.027 57.3627 470.579 57.8107 470.195 58.152C469.854 58.4507 469.662 58.6427 469.619 58.728C469.192 59.5387 468.808 60.2427 468.467 60.84C468.126 61.3947 467.848 61.8427 467.635 62.184L467.059 63.528C466.803 64.168 466.696 65.0213 466.739 66.088C466.824 66.2587 466.91 66.6427 466.995 67.24C467.08 67.7947 466.824 68.392 466.227 69.032C466.099 69.16 465.971 69.416 465.843 69.8C465.715 70.1413 465.63 70.5467 465.587 71.016C465.544 71.4853 465.587 71.9547 465.715 72.424C465.886 72.8933 466.206 73.2987 466.675 73.64C467.272 74.0667 467.891 74.4933 468.531 74.92C469.171 75.304 469.576 75.496 469.747 75.496H470.451C470.707 75.496 470.942 75.56 471.155 75.688L476.019 73ZM503.227 79.656C503.099 79.656 502.822 79.6773 502.395 79.72C502.011 79.72 501.584 79.7413 501.115 79.784C500.646 79.784 500.198 79.8053 499.771 79.848C499.344 79.848 499.046 79.848 498.875 79.848L497.467 79.976L496.379 79.208C496.336 78.568 496.379 77.8213 496.507 76.968C496.678 76.1147 496.763 75.4533 496.763 74.984C497.275 74.984 497.382 74.472 497.083 73.448C496.742 72.424 496.614 71.6133 496.699 71.016C496.742 70.3333 496.848 69.6507 497.019 68.968C497.19 68.2427 497.211 67.7733 497.083 67.56C496.998 67.304 496.891 67.0267 496.763 66.728C496.635 66.3867 496.528 66.0027 496.443 65.576L497.211 61.416C497.211 59.112 497.232 57.3413 497.275 56.104C497.36 54.8667 497.424 53.9493 497.467 53.352C497.552 52.7547 497.638 52.392 497.723 52.264C497.851 52.0933 497.936 51.944 497.979 51.816C498.064 51.688 498.107 51.4747 498.107 51.176C498.15 50.8773 498.15 50.28 498.107 49.384L499.451 48.68C500.176 48.7227 501.051 48.8507 502.075 49.064C503.142 49.2347 504.166 49.4267 505.147 49.64C505.659 49.7253 506.107 49.8107 506.491 49.896C506.875 49.9387 507.216 50.0027 507.515 50.088L508.411 51.304C507.6 51.8587 507.067 52.2213 506.811 52.392C506.555 52.5627 506.534 52.9253 506.747 53.48C507.515 54.1627 508.176 54.376 508.731 54.12C509.328 53.864 509.734 53.4587 509.947 52.904L514.107 51.88H516.539L517.627 52.264C518.651 52.6053 519.675 52.968 520.699 53.352C521.766 53.736 522.64 54.0347 523.323 54.248L524.475 57.064L524.411 57.832C524.496 59.0693 524.56 60.264 524.603 61.416C524.688 62.5253 524.688 63.8907 524.603 65.512C524.56 66.536 524.518 67.5813 524.475 68.648C524.432 69.672 524.39 70.6533 524.347 71.592C524.347 72.5307 524.347 73.3627 524.347 74.088C524.347 74.7707 524.347 75.2827 524.347 75.624C524.347 75.6667 524.39 75.8373 524.475 76.136C524.603 76.4347 524.774 76.7547 524.987 77.096L524.539 77.8L523.323 78.376C522.726 78.4187 521.958 78.5253 521.019 78.696C520.123 78.8667 519.376 78.952 518.779 78.952C518.523 78.952 518.31 78.8667 518.139 78.696C517.968 78.4827 517.584 78.3973 516.987 78.44L516.091 77.672C516.176 77.1173 516.198 76.6693 516.155 76.328C516.112 75.944 516.048 75.624 515.963 75.368C515.878 75.0693 515.792 74.8133 515.707 74.6C515.622 74.3867 515.579 74.1733 515.579 73.96C515.622 73.32 515.686 72.616 515.771 71.848C515.856 71.2507 515.942 70.568 516.027 69.8C516.155 68.9893 516.304 68.2 516.475 67.432C516.56 66.9627 516.603 66.3653 516.603 65.64C516.603 64.872 516.603 64.1253 516.603 63.4C516.603 62.632 516.603 61.9067 516.603 61.224C516.603 60.5413 516.624 60.0293 516.667 59.688L514.811 56.424C514.64 56.3813 514.47 56.3387 514.299 56.296C514.128 56.2533 513.936 56.1893 513.723 56.104C513.382 56.0187 513.04 56.04 512.699 56.168C512.4 56.296 512.102 56.4453 511.803 56.616C511.504 56.7867 511.227 56.9573 510.971 57.128C510.715 57.2987 510.48 57.384 510.267 57.384C510.267 57.512 510.032 57.4053 509.563 57.064C509.136 56.68 508.774 56.3173 508.475 55.976C507.75 55.3787 507.216 55.272 506.875 55.656C506.576 55.9973 506.32 56.4667 506.107 57.064C506.15 57.5333 506.214 57.8533 506.299 58.024C506.427 58.1947 506.555 58.3227 506.683 58.408C506.854 58.4507 507.003 58.4507 507.131 58.408C506.918 58.5787 506.747 58.8987 506.619 59.368C506.491 59.7947 506.384 60.2853 506.299 60.84C506.256 61.352 506.235 61.9067 506.235 62.504C506.278 63.0587 506.342 63.5707 506.427 64.04C506.512 64.552 506.448 65.448 506.235 66.728C506.064 68.008 506.022 69.48 506.107 71.144C506.107 71.784 506.086 72.4667 506.043 73.192C506 73.8747 505.958 74.5573 505.915 75.24C505.872 75.88 505.83 76.4773 505.787 77.032C505.744 77.544 505.723 77.9493 505.723 78.248V78.44C504.912 79.1227 504.08 79.528 503.227 79.656Z" fill="#F4DFB0"/>
<path d="M101.286 5H619L532.714 119L15 119L101.286 5Z" stroke="#8086A8" stroke-width="4"/>
<defs>
<filter id="filter0_d_172_2" x="0.939209" y="0" width="631.97" height="131.869" filterUnits="userSpaceOnUse" color-interpolation-filters="sRGB">
<feFlood flood-opacity="0" result="BackgroundImageFix"/>
<feColorMatrix in="SourceAlpha" type="matrix" values="0 0 0 0 0 0 0 0 0 0 0 0 0 0 0 0 0 0 127 0" result="hardAlpha"/>
<feOffset dy="4"/>
<feGaussianBlur stdDeviation="2"/>
<feComposite in2="hardAlpha" operator="out"/>
<feColorMatrix type="matrix" values="0 0 0 0 0 0 0 0 0 0 0 0 0 0 0 0 0 0 0.25 0"/>
<feBlend mode="normal" in2="BackgroundImageFix" result="effect1_dropShadow_172_2"/>
<feBlend mode="normal" in="SourceGraphic" in2="effect1_dropShadow_172_2" result="shape"/>
</filter>
</defs>
</svg>
