<svg width="633" height="132" viewBox="0 0 633 132" fill="none" xmlns="http://www.w3.org/2000/svg">
<g filter="url(#filter0_d_32_30)">
<path d="M101.264 5H618.848L532.584 118.869L15 118.868L101.264 5Z" fill="#8C6F4D"/>
<path d="M101.264 5H618.848L532.584 118.869L15 118.868L101.264 5Z" stroke="#F4DFB0" stroke-width="10"/>
</g>
<path d="M140.001 78.12L139.233 78.376C138.636 78.5893 137.932 78.7387 137.121 78.824C136.353 78.8667 135.862 78.888 135.649 78.888C135.521 78.888 135.222 78.8667 134.753 78.824C134.326 78.7387 134.006 78.696 133.793 78.696C133.665 78.696 133.494 78.8027 133.281 79.016L130.401 77.992C130.401 77.7787 130.401 77.5867 130.401 77.416C130.444 77.2453 130.486 77.0533 130.529 76.84C130.614 76.2427 130.678 75.688 130.721 75.176C130.806 74.6213 130.806 74.1093 130.721 73.64C131.062 73.2987 131.105 72.2533 130.849 70.504C130.593 68.712 130.465 67.5813 130.465 67.112C130.465 66.984 130.508 66.6427 130.593 66.088C130.678 65.5333 130.764 65.0427 130.849 64.616C130.892 64.488 130.977 64.3173 131.105 64.104C131.276 63.8907 131.361 63.656 131.361 63.4C131.276 62.1627 131.318 61.16 131.489 60.392C131.702 59.5813 131.766 58.7707 131.681 57.96C131.638 57.7467 131.66 57.5333 131.745 57.32C131.83 57.1067 131.873 56.8293 131.873 56.488V54.376C131.873 53.7787 131.873 53.1173 131.873 52.392C131.873 51.624 131.894 50.7493 131.937 49.768C131.98 47.848 132.001 46.568 132.001 45.928C132.044 45.288 132.108 44.84 132.193 44.584C132.236 44.1573 132.342 43.816 132.513 43.56C132.726 43.304 132.833 42.8773 132.833 42.28C132.833 42.2373 132.748 42.1093 132.577 41.896C132.449 41.6827 132.278 41.4053 132.065 41.064C131.937 40.8933 131.852 40.68 131.809 40.424C131.766 40.168 131.745 39.9333 131.745 39.72C131.788 39.464 131.809 39.2507 131.809 39.08C131.852 38.9093 131.873 38.4187 131.873 37.608C133.025 37.2667 134.198 37.096 135.393 37.096C136.588 37.096 137.548 37.0533 138.273 36.968C138.529 36.9253 138.721 36.8827 138.849 36.84C139.02 36.7973 139.169 36.776 139.297 36.776C139.425 36.7333 139.574 36.712 139.745 36.712C139.958 36.6693 140.257 36.648 140.641 36.648C140.812 37.0747 141.046 37.544 141.345 38.056C141.644 38.568 141.878 39.0373 142.049 39.464C142.604 40.232 143.137 40.5947 143.649 40.552C144.161 40.5093 144.63 40.3173 145.057 39.976C145.526 39.6347 145.91 39.272 146.209 38.888C146.508 38.4613 146.7 38.248 146.785 38.248L154.017 38.312L159.521 42.088C159.734 42.3013 160.012 42.5573 160.353 42.856C160.694 43.112 161.057 43.4747 161.441 43.944C162.294 44.84 162.934 45.2667 163.361 45.224L164.897 47.464C164.812 47.592 164.62 47.976 164.321 48.616C164.065 49.2133 163.681 50.0667 163.169 51.176C162.188 53.48 161.697 55.272 161.697 56.552L160.417 57.32C159.564 57.6613 159.137 58.536 159.137 59.944C158.412 59.8587 157.217 60.136 155.553 60.776C155.084 60.9893 154.572 61.1387 154.017 61.224C153.462 61.2667 152.95 61.3093 152.481 61.352C152.182 61.3947 151.884 61.416 151.585 61.416C151.329 61.416 151.052 61.416 150.753 61.416L150.049 63.016C149.537 62.632 148.961 62.376 148.321 62.248C147.681 62.12 147.041 62.0773 146.401 62.12C145.804 62.1627 145.228 62.248 144.673 62.376C144.118 62.504 143.649 62.6533 143.265 62.824C141.857 63.336 141.132 63.592 141.089 63.592H140.705C140.748 63.6347 140.769 63.6987 140.769 63.784C140.684 64.2107 140.534 64.7227 140.321 65.32C140.15 65.8747 140.065 66.2587 140.065 66.472C140.065 66.728 140.086 67.0907 140.129 67.56C140.172 67.9867 140.214 68.5627 140.257 69.288C140.3 69.9707 140.321 70.5467 140.321 71.016C140.364 71.4853 140.385 71.848 140.385 72.104L140.641 73.832C140.726 74.1733 140.79 74.5147 140.833 74.856C140.876 75.1547 140.94 75.4747 141.025 75.816L140.001 78.12ZM142.369 43.816C142.369 44.1573 142.369 44.5627 142.369 45.032C142.412 45.5013 142.454 46.0347 142.497 46.632C142.71 49.2773 142.774 50.856 142.689 51.368C141.836 51.88 141.324 52.648 141.153 53.672C141.025 54.2267 140.897 54.76 140.769 55.272C140.641 55.7413 140.492 56.1467 140.321 56.488L140.193 56.616C140.193 57.0853 140.193 57.4267 140.193 57.64C140.236 57.8533 140.257 58.1093 140.257 58.408L141.473 59.24L142.689 58.92C142.689 59.8587 143.841 59.8373 146.145 58.856C148.406 57.9173 149.686 57.448 149.985 57.448H152.673C153.014 56.9787 153.42 56.488 153.889 55.976C154.358 55.4213 154.593 55.08 154.593 54.952L155.425 50.28L155.041 48.68L146.529 42.6H143.713L142.369 43.816ZM160.929 78.248C160.844 77.864 160.588 77.608 160.161 77.48C159.99 77.3093 159.926 77.0747 159.969 76.776C160.012 76.4773 159.969 76.2853 159.841 76.2C159.798 76.1147 159.756 76.072 159.713 76.072C159.67 76.072 159.606 76.0507 159.521 76.008C159.478 75.9227 159.35 75.7733 159.137 75.56C159.009 75.3893 158.86 75.2187 158.689 75.048C158.518 74.8347 158.326 74.5573 158.113 74.216C157.644 73.6187 157.281 73.1493 157.025 72.808C156.769 72.424 156.577 72.1893 156.449 72.104C156.278 72.0187 156.022 71.848 155.681 71.592C155.34 71.336 155.105 71.1867 154.977 71.144C154.849 71.016 154.742 70.8667 154.657 70.696C154.572 70.5253 154.486 70.3973 154.401 70.312C154.316 70.2267 154.209 69.928 154.081 69.416C153.953 68.904 153.825 68.456 153.697 68.072C153.228 67.6453 152.524 66.8773 151.585 65.768C151.286 65.4693 151.116 65.2773 151.073 65.192L151.905 63.976L154.977 65.512C155.02 65.5547 155.233 65.5547 155.617 65.512C156.044 65.4693 156.492 65.448 156.961 65.448C157.43 65.4053 157.878 65.4053 158.305 65.448C158.774 65.4907 159.073 65.6187 159.201 65.832C159.372 66.0453 159.585 66.1947 159.841 66.28C160.097 66.3653 160.353 66.4507 160.609 66.536C160.908 66.5787 161.142 66.6213 161.313 66.664C161.526 66.7067 161.654 66.792 161.697 66.92L162.977 69.288C163.148 69.5013 163.446 69.864 163.873 70.376C164.342 70.8453 164.961 71.5067 165.729 72.36C167.265 74.152 168.054 75.0693 168.097 75.112L167.905 77.352L162.785 78.824L160.929 78.248ZM200.079 64.36C199.14 64.232 198.308 64.4027 197.583 64.872C197.327 65 197.071 65.128 196.815 65.256C196.559 65.3413 196.303 65.4267 196.047 65.512C195.919 65.5547 195.791 65.5973 195.663 65.64C195.535 65.6827 195.428 65.7253 195.343 65.768L186.447 68.456C183.972 67.9013 183.097 68.3067 183.823 69.672C183.951 69.9707 184.121 70.4187 184.335 71.016C184.548 71.6133 184.719 72.04 184.847 72.296C185.401 72.5093 185.977 72.8507 186.575 73.32C187.172 73.7467 187.727 74.0027 188.239 74.088L189.391 73.96C189.689 73.96 190.095 73.9387 190.607 73.896C191.161 73.8533 191.695 73.7893 192.207 73.704C192.761 73.576 193.252 73.4267 193.679 73.256C194.148 73.0853 194.468 72.872 194.639 72.616C194.767 72.4027 194.959 72.2533 195.215 72.168C195.471 72.04 195.727 71.9333 195.983 71.848C196.153 71.8053 196.303 71.784 196.431 71.784C196.601 71.7413 196.793 71.6987 197.007 71.656L197.711 74.152L196.943 75.624C196.9 75.7093 196.751 75.816 196.495 75.944C196.281 76.0293 196.025 76.1573 195.727 76.328C195.428 76.4987 195.129 76.6693 194.831 76.84C194.575 76.968 194.383 77.096 194.255 77.224C194.169 77.3093 193.935 77.352 193.551 77.352C193.209 77.352 192.804 77.352 192.335 77.352C191.908 77.352 191.46 77.3733 190.991 77.416C190.521 77.4587 190.159 77.544 189.903 77.672C189.305 77.9707 188.836 78.1627 188.495 78.248C188.196 78.3333 187.94 78.3973 187.727 78.44C187.513 78.5253 187.364 78.504 187.279 78.376C187.193 78.3333 187.044 78.312 186.831 78.312C186.703 78.312 186.532 78.312 186.319 78.312C186.105 78.312 185.892 78.2907 185.679 78.248C185.124 78.2053 184.676 78.184 184.335 78.184C183.993 78.1413 183.78 78.12 183.695 78.12L177.551 75.112C177.423 73.832 176.825 73.192 175.759 73.192C175.545 73.192 175.289 73.0213 174.991 72.68C174.692 72.296 174.436 71.8907 174.223 71.464C174.052 71.2507 173.903 71.016 173.775 70.76C173.647 70.4613 173.519 70.1413 173.391 69.8L172.815 62.504L173.391 58.216C173.433 58.0453 173.561 57.832 173.775 57.576C174.031 57.1493 174.351 56.5093 174.735 55.656C174.905 55.272 175.247 54.9093 175.759 54.568C176.271 54.2267 176.804 53.928 177.359 53.672C177.956 53.3733 178.511 53.1173 179.023 52.904C179.577 52.648 179.983 52.4347 180.239 52.264C180.751 52.3493 181.497 51.7947 182.479 50.6C182.735 50.3013 183.055 50.0667 183.439 49.896C183.823 49.6827 184.207 49.512 184.591 49.384C184.804 49.2987 185.039 49.2347 185.295 49.192C185.551 49.1493 185.785 49.1067 185.999 49.064L193.487 50.024C193.913 50.1093 194.361 50.2373 194.831 50.408C195.172 50.5787 195.513 50.792 195.855 51.048C196.196 51.304 196.473 51.6027 196.687 51.944C196.985 52.6693 197.412 53.2667 197.967 53.736C198.521 54.1627 198.969 54.4613 199.311 54.632L201.679 58.856L201.167 63.016L200.079 64.36ZM190.607 62.184L191.119 61.8C191.247 61.7147 191.375 61.6293 191.503 61.544C191.631 61.416 191.737 61.3307 191.823 61.288C192.121 61.2027 192.463 61.032 192.847 60.776C193.231 60.52 193.38 60.2 193.295 59.816C193.295 59.0907 192.911 58.28 192.143 57.384C191.375 56.488 190.372 55.848 189.135 55.464C188.537 55.2507 187.961 55.144 187.407 55.144C186.852 55.144 186.319 55.1867 185.807 55.272C185.337 55.3147 184.889 55.3787 184.463 55.464C184.079 55.5493 183.759 55.592 183.503 55.592C182.521 55.3787 181.967 55.8267 181.839 56.936C181.199 57.9173 180.879 59.0053 180.879 60.2C180.921 61.352 181.049 62.4613 181.263 63.528C181.263 64.1253 181.369 64.616 181.583 65C181.839 65.384 182.137 65.6187 182.479 65.704C182.82 65.7893 183.161 65.7253 183.503 65.512C183.887 65.256 184.207 64.808 184.463 64.168L190.607 62.184ZM231.876 66.472C231.449 66.7707 230.852 66.92 230.084 66.92C229.487 66.92 228.975 66.92 228.548 66.92C228.164 66.92 227.844 66.8987 227.588 66.856L225.796 68.008C225.668 68.0507 225.433 68.1147 225.092 68.2C224.879 68.2853 224.601 68.3707 224.26 68.456C223.961 68.5413 223.599 68.6693 223.172 68.84C222.319 69.0533 221.529 69.3307 220.804 69.672C220.121 70.0133 219.481 70.376 218.884 70.76C218.585 71.1013 218.223 71.3147 217.796 71.4C217.369 71.4427 217.177 71.5493 217.22 71.72C217.007 72.3173 216.836 72.8507 216.708 73.32C216.58 73.7893 216.516 74.28 216.516 74.792C216.516 75.3893 216.516 75.9227 216.516 76.392C216.516 76.8613 216.473 77.224 216.388 77.48L223.684 74.728C224.153 74.8133 224.516 74.856 224.772 74.856C225.028 74.856 225.263 74.856 225.476 74.856C225.689 74.8987 225.924 74.856 226.18 74.728C226.436 74.5573 226.799 74.3653 227.268 74.152L228.74 74.216L232.772 75.432L233.412 76.328C233.497 76.712 233.668 77.2667 233.924 77.992C234.223 78.6747 234.436 79.3573 234.564 80.04C234.649 80.3813 234.735 80.7653 234.82 81.192C234.948 81.6613 235.097 82.1947 235.268 82.792C235.567 83.9867 235.823 84.648 236.036 84.776L235.46 86.44L236.036 88.04L235.716 89.256L232.26 91.88C232.089 91.8373 231.94 91.7947 231.812 91.752C231.684 91.7093 231.556 91.6667 231.428 91.624C231.215 91.5387 231.001 91.4747 230.788 91.432C230.575 91.3893 230.404 91.368 230.276 91.368L225.284 93.672C225.113 93.6293 224.921 93.5867 224.708 93.544C224.537 93.544 224.345 93.5013 224.132 93.416C223.748 93.3307 223.236 93.224 222.596 93.096C221.999 93.0107 221.295 92.8827 220.484 92.712C219.673 92.5413 218.735 92.3707 217.668 92.2C216.644 92.0293 215.641 91.88 214.66 91.752C213.721 91.624 212.847 91.5387 212.036 91.496C211.268 91.4533 210.735 91.4533 210.436 91.496L207.556 90.92L206.98 90.408L205.956 86.248L206.276 84.968C207.3 84.456 208.175 83.7307 208.9 82.792C209.625 81.896 210.031 80.7653 210.116 79.4C210.159 78.6747 210.18 78.0773 210.18 77.608C210.18 77.1387 210.18 76.7547 210.18 76.456C210.18 76.1573 210.159 75.9227 210.116 75.752C210.116 75.5813 210.116 75.3893 210.116 75.176L210.628 72.296L211.588 71.464L211.908 68.2C211.78 68.0293 211.588 67.7733 211.332 67.432C211.119 67.048 210.863 66.6427 210.564 66.216C210.265 65.7893 209.967 65.384 209.668 65C209.412 64.5733 209.177 64.2107 208.964 63.912L209.156 60.584L212.1 54.504L213.764 52.072L220.036 49.192L226.884 51.944L228.484 51.176C228.612 51.176 228.74 51.1547 228.868 51.112C228.996 51.0693 229.167 51.048 229.38 51.048C229.593 51.0053 229.871 50.9413 230.212 50.856C230.852 50.7707 231.407 50.536 231.876 50.152C232.345 49.768 232.793 49.256 233.22 48.616C233.561 49.0427 233.881 49.4267 234.18 49.768C234.479 50.1093 234.756 50.4293 235.012 50.728C235.183 50.8987 235.332 51.0693 235.46 51.24C235.588 51.368 235.716 51.496 235.844 51.624V54.952L235.204 55.592L230.724 56.552L231.3 58.6L231.492 61.544L232.58 64.36L231.876 66.472ZM216.836 66.024L223.236 64.488C223.535 64.1893 223.748 63.7413 223.876 63.144C224.047 62.504 223.833 61.8853 223.236 61.288L221.572 58.344L219.652 54.504H217.348L217.22 56.808C216.111 56.5947 215.385 57.1067 215.044 58.344C214.831 58.984 214.66 59.5173 214.532 59.944C214.404 60.328 214.319 60.6693 214.276 60.968L216.836 66.024ZM215.492 87.912L221.956 88.808C224.345 89.0213 225.903 89.0213 226.628 88.808C226.671 88.5947 226.692 88.36 226.692 88.104C226.735 87.8907 226.735 87.6773 226.692 87.464C226.692 87.0373 226.5 86.5253 226.116 85.928C225.732 85.3733 225.54 84.8187 225.54 84.264C225.54 84.0507 225.604 83.9227 225.732 83.88C225.86 83.88 225.881 83.7733 225.796 83.56C225.753 83.3893 225.711 83.0907 225.668 82.664C225.668 82.2373 225.647 81.7893 225.604 81.32C225.561 80.8507 225.497 80.4027 225.412 79.976C225.369 79.5493 225.284 79.272 225.156 79.144C224.9 79.2293 224.473 79.3787 223.876 79.592C223.321 79.8053 222.703 80.0187 222.02 80.232C221.38 80.4453 220.761 80.6587 220.164 80.872C219.567 81.0427 219.14 81.1493 218.884 81.192C218.5 81.96 217.988 82.4293 217.348 82.6C216.751 82.8133 216.089 83.0907 215.364 83.432C215.492 83.7733 215.385 84.1147 215.044 84.456C214.745 84.6693 213.956 85.0533 212.676 85.608C211.353 86.2053 210.607 86.7813 210.436 87.336L215.492 87.912ZM248.898 39.656C248.983 39.3147 249.026 38.9947 249.026 38.696C249.068 38.3547 249.111 38.0133 249.154 37.672C249.154 37.3733 249.154 37.1173 249.154 36.904C249.196 36.6907 249.218 36.4987 249.218 36.328L249.538 35.624C249.666 35.5813 249.836 35.56 250.05 35.56C250.263 35.56 250.519 35.5387 250.818 35.496C251.714 35.4533 252.29 35.3467 252.546 35.176C252.546 35.1333 252.652 35.048 252.866 34.92C252.994 34.792 253.1 34.7067 253.186 34.664C253.228 34.664 253.378 34.6853 253.634 34.728C253.89 34.7707 254.231 34.856 254.658 34.984C255.383 35.1547 255.895 35.24 256.194 35.24C256.578 35.24 256.791 35.2187 256.833 35.176C256.876 35.1333 257.004 35.1333 257.218 35.176L257.794 36.264L258.37 39.528L257.026 41.768C256.983 41.8107 256.94 41.8533 256.898 41.896C256.898 41.9387 256.855 41.9813 256.77 42.024C256.556 42.152 256.3 42.344 256.002 42.6L255.81 42.792L253.89 42.984C253.634 42.8987 253.335 42.8133 252.994 42.728C252.652 42.6 252.247 42.4507 251.778 42.28C251.308 42.1093 250.903 41.96 250.562 41.832C250.22 41.6613 249.922 41.5333 249.666 41.448L249.345 41.128L248.898 39.656ZM256.833 50.664L256.578 52.968L256.833 53.928L256.45 54.952L256.642 56.424L256.322 57.64L256.514 58.024L256.258 60.904L256.002 66.984C256.002 67.2827 255.959 67.6667 255.874 68.136C255.788 68.5627 255.724 69.032 255.682 69.544C255.639 70.0133 255.639 70.504 255.682 71.016C255.724 71.4853 255.852 71.8907 256.066 72.232C256.023 72.872 255.959 73.6187 255.874 74.472C255.788 75.3253 255.639 76.3067 255.426 77.416C255.084 77.8853 254.722 78.312 254.338 78.696C253.996 79.0373 253.335 79.2293 252.354 79.272C251.799 79.3147 251.244 79.3573 250.69 79.4C250.178 79.4427 249.687 79.5067 249.218 79.592C248.962 79.6347 248.706 79.6773 248.45 79.72C248.194 79.7627 247.916 79.8267 247.618 79.912L246.018 77.864C246.06 77.6507 246.124 77.0747 246.21 76.136C246.338 75.1547 246.444 74.0027 246.53 72.68C246.615 71.3573 246.658 69.9493 246.658 68.456C246.7 66.9627 246.658 65.576 246.53 64.296L246.914 63.08L247.49 60.264L247.682 58.024L248.066 57.256L248.13 56.68L248.514 54.952L248.834 51.432L254.594 49.192L256.833 50.664ZM266.214 54.696L268.966 50.28C269.136 50.28 269.307 50.28 269.478 50.28C269.648 50.2373 269.84 50.1947 270.054 50.152C270.395 50.1093 270.843 50.0453 271.398 49.96C271.952 49.8747 272.592 49.7893 273.318 49.704C276.219 49.3627 277.286 48.6587 276.518 47.592L285.67 46.248H288.038L288.486 46.76L288.742 48.872L287.654 49.704L284.454 49.768L280.294 51.816L275.686 53.288L274.918 55.016L276.39 58.6L278.182 58.856L279.014 60.712L280.55 60.584L281.446 61.672C281.83 61.544 282.214 61.4587 282.598 61.416C282.982 61.3307 283.323 61.3307 283.622 61.416C283.835 61.4587 284.07 61.5013 284.326 61.544C284.582 61.544 284.88 61.5867 285.222 61.672C285.648 61.8 285.947 61.9493 286.118 62.12C286.288 62.248 286.438 62.376 286.566 62.504C286.694 62.5893 286.843 62.6747 287.014 62.76C287.184 62.8453 287.483 62.888 287.91 62.888C288.038 63.144 288.272 63.4 288.614 63.656C288.998 63.912 289.403 64.168 289.83 64.424C290.299 64.68 290.747 64.936 291.174 65.192C291.643 65.448 291.984 65.704 292.198 65.96C292.283 66.0453 292.326 66.1093 292.326 66.152C292.368 66.1947 292.432 66.2587 292.518 66.344L292.902 69.416L291.494 73.256L291.11 75.944L287.974 77.544L282.79 79.592L279.654 79.144C278.544 78.9733 277.563 78.9733 276.71 79.144C275.856 79.3147 275.067 79.4 274.342 79.4H267.302L266.534 77.48L267.046 75.624L276.326 74.664L279.398 74.28L283.238 70.184L282.662 68.328L279.846 67.816L274.918 66.472L274.086 66.92L271.398 65.704L269.67 64.552L267.686 60.2L266.214 57.32V54.696ZM298.751 56.232C298.58 55.7627 298.452 55.144 298.367 54.376C298.281 53.5653 298.196 52.8827 298.111 52.328L299.327 50.024C300.095 49.896 300.628 49.8533 300.927 49.896C301.268 49.9387 301.524 50.0027 301.695 50.088C301.951 50.0453 302.313 50.0027 302.783 49.96C303.295 49.8747 304.063 49.7467 305.087 49.576C305.172 48.8507 305.321 48.04 305.535 47.144C305.748 46.248 305.897 45.2453 305.983 44.136L305.087 43.24L305.023 42.28L305.727 40.616H313.407L316.287 40.744C316.585 41.0853 316.713 41.4907 316.671 41.96C316.628 42.3867 316.543 42.792 316.415 43.176C316.287 43.56 316.159 43.88 316.031 44.136C315.945 44.3493 315.967 44.4133 316.095 44.328V48.296C315.839 48.5093 315.647 48.7653 315.519 49.064C315.391 49.32 315.284 49.6187 315.199 49.96L315.327 50.088L319.039 49.96C319.167 50.0027 319.295 50.0453 319.423 50.088C319.551 50.1307 319.7 50.1733 319.871 50.216C320.383 50.344 321.044 50.408 321.855 50.408L322.431 51.048L321.727 54.12C321.471 54.12 321.129 54.1627 320.703 54.248C320.276 54.2907 319.828 54.3547 319.359 54.44C318.932 54.4827 318.527 54.5253 318.143 54.568C317.801 54.6107 317.567 54.632 317.439 54.632L314.751 55.4C314.58 55.8693 314.452 56.2747 314.367 56.616C314.324 56.9147 314.303 57.2133 314.303 57.512C314.303 57.768 314.303 58.0667 314.303 58.408C314.345 58.7067 314.367 59.0907 314.367 59.56L313.919 67.688C313.791 68.4133 313.748 69.0747 313.791 69.672C313.876 70.2693 313.983 70.7813 314.111 71.208C314.196 71.4213 314.281 71.6347 314.367 71.848C314.452 72.0613 314.537 72.2747 314.623 72.488L315.199 74.152L315.455 74.472L321.663 72.552L324.031 71.976L325.439 73.256L323.903 75.304L322.431 76.072L321.151 76.328L313.791 79.592C313.577 79.592 313.407 79.5707 313.279 79.528C313.065 79.528 312.809 79.528 312.51 79.528C312.255 79.4853 311.956 79.4427 311.615 79.4C310.079 79.272 308.927 79.3147 308.159 79.528C308.159 78.3333 307.689 77.5227 306.751 77.096C306.281 76.7973 305.855 76.5413 305.47 76.328C305.129 76.1147 304.809 75.944 304.51 75.816C304.51 75.0907 304.51 74.6 304.51 74.344C304.553 74.088 304.511 73.7467 304.383 73.32C304.297 73.1067 304.276 72.6373 304.319 71.912C304.361 71.144 304.404 70.184 304.447 69.032C304.532 67.8373 304.489 66.8773 304.319 66.152C304.148 65.384 303.892 65 303.551 65C303.593 64.4453 303.615 63.8907 303.615 63.336C303.657 62.7813 303.7 62.2907 303.743 61.864C303.785 61.6507 303.807 61.416 303.807 61.16C303.807 60.904 303.807 60.6693 303.807 60.456C303.892 60.2853 303.956 60.1573 303.999 60.072C304.041 59.944 304.084 59.8587 304.127 59.816C304.169 59.7307 304.361 59.624 304.703 59.496C305.087 59.3253 305.428 58.8773 305.727 58.152C306.708 57.4693 307.135 56.8507 307.007 56.296C306.879 55.7413 306.132 55.3573 304.767 55.144C304.468 55.1867 304.212 55.272 303.999 55.4C303.828 55.4853 303.743 55.72 303.743 56.104L299.903 56.936L298.751 56.232ZM354.407 50.92V53.864H352.743L350.311 55.784C348.22 56.0827 346.514 56.5093 345.191 57.064C343.868 57.576 343.25 58.3013 343.335 59.24C343.25 59.4533 343.207 59.7093 343.207 60.008C343.207 60.264 343.356 60.392 343.655 60.392L342.375 66.792L341.799 67.496V74.6L341.415 78.184L340.135 79.464L332.839 78.952L331.239 76.776L331.687 75.624L331.431 72.104L332.199 65.64L332.839 60.904C332.839 60.776 332.86 60.6693 332.903 60.584C332.903 60.4987 332.903 60.392 332.903 60.264C332.946 60.136 332.967 60.0293 332.967 59.944C333.18 59.7733 333.308 59.3893 333.351 58.792C333.436 58.1947 333.458 57.8107 333.415 57.64C333.415 57.3413 333.394 57.064 333.351 56.808C333.351 56.552 333.266 55.9973 333.095 55.144C333.052 54.888 332.903 54.5893 332.647 54.248C332.434 53.864 332.199 53.5227 331.943 53.224L332.775 51.24H333.991L340.583 50.024L342.183 50.792C342.055 51.5173 342.034 52.136 342.119 52.648C342.247 53.1173 342.418 53.48 342.631 53.736C342.887 53.992 343.164 54.1627 343.463 54.248C343.762 54.2907 344.018 54.248 344.231 54.12L345.383 53.48C345.596 53.3947 345.66 53.16 345.575 52.776C345.532 52.392 345.554 51.9013 345.639 51.304L353.575 49.896L354.407 50.92ZM391.51 76.072L382.55 77.16L380.694 74.152C380.694 73.5973 380.267 73.6187 379.414 74.216C379.2 74.344 378.987 74.5573 378.774 74.856C378.56 75.1547 378.347 75.4533 378.134 75.752C378.006 75.9227 377.878 76.0933 377.75 76.264C377.622 76.4347 377.494 76.6267 377.366 76.84C376.043 77.8213 374.678 78.4613 373.27 78.76C371.904 79.0587 370.731 78.8667 369.75 78.184C369.024 78.0987 368.534 77.928 368.278 77.672C368.15 77.5867 367.979 77.4373 367.766 77.224L363.67 76.968L361.942 76.136L360.342 72.104L360.661 70.76L359.254 65.128L361.942 60.648L364.118 58.664C364.928 58.2373 365.867 57.896 366.934 57.64C368 57.384 369.067 57.2133 370.134 57.128C371.2 57 372.224 56.9787 373.206 57.064C374.187 57.1067 374.998 57.2347 375.638 57.448C375.638 58.1307 375.851 58.5787 376.278 58.792C376.704 59.0053 377.536 59.24 378.774 59.496C379.2 58.7707 379.414 57.896 379.414 56.872C379.414 55.8053 379.222 54.696 378.838 53.544L377.814 50.28C377.472 50.152 376.939 49.9387 376.214 49.64C375.531 49.2987 374.955 49.0213 374.486 48.808L371.734 49.256L368.918 49.832L368.278 48.808L368.982 47.144L369.43 46.12L370.326 45.928L373.27 45.416L375.894 46.312L378.774 45.864L384.342 47.528L386.71 51.112L387.542 61.288L387.35 64.488L388.757 71.976L389.59 72.36H391.574L392.406 74.6L391.51 76.072ZM368.022 65.64C367.808 66.7493 367.808 67.688 368.022 68.456C368.278 69.224 368.683 69.864 369.238 70.376L370.198 72.36C370.966 72.616 371.691 72.808 372.374 72.936C373.056 73.064 373.76 73.0853 374.486 73C375.254 72.872 376.043 72.6373 376.854 72.296C377.707 71.912 378.688 71.3573 379.798 70.632L379.926 67.368L378.774 61.672C378.176 61.4587 377.643 61.352 377.174 61.352C376.747 61.352 376.32 61.3947 375.894 61.48C375.382 61.608 374.784 61.7147 374.102 61.8C373.419 61.8853 372.715 61.992 371.99 62.12C371.307 62.2053 370.667 62.3333 370.07 62.504C369.515 62.632 369.11 62.824 368.854 63.08L368.022 65.64ZM420.282 50.92V53.864H418.618L416.186 55.784C414.095 56.0827 412.389 56.5093 411.066 57.064C409.743 57.576 409.125 58.3013 409.21 59.24C409.125 59.4533 409.082 59.7093 409.082 60.008C409.082 60.264 409.231 60.392 409.53 60.392L408.25 66.792L407.674 67.496V74.6L407.29 78.184L406.01 79.464L398.714 78.952L397.114 76.776L397.562 75.624L397.306 72.104L398.074 65.64L398.714 60.904C398.714 60.776 398.735 60.6693 398.778 60.584C398.778 60.4987 398.778 60.392 398.778 60.264C398.821 60.136 398.842 60.0293 398.842 59.944C399.055 59.7733 399.183 59.3893 399.226 58.792C399.311 58.1947 399.333 57.8107 399.29 57.64C399.29 57.3413 399.269 57.064 399.226 56.808C399.226 56.552 399.141 55.9973 398.97 55.144C398.927 54.888 398.778 54.5893 398.522 54.248C398.309 53.864 398.074 53.5227 397.818 53.224L398.65 51.24H399.866L406.458 50.024L408.058 50.792C407.93 51.5173 407.909 52.136 407.994 52.648C408.122 53.1173 408.293 53.48 408.506 53.736C408.762 53.992 409.039 54.1627 409.338 54.248C409.637 54.2907 409.893 54.248 410.106 54.12L411.258 53.48C411.471 53.3947 411.535 53.16 411.45 52.776C411.407 52.392 411.429 51.9013 411.514 51.304L419.45 49.896L420.282 50.92ZM426.089 54.696L428.841 50.28C429.011 50.28 429.182 50.28 429.353 50.28C429.523 50.2373 429.715 50.1947 429.929 50.152C430.27 50.1093 430.718 50.0453 431.273 49.96C431.827 49.8747 432.467 49.7893 433.193 49.704C436.094 49.3627 437.161 48.6587 436.393 47.592L445.545 46.248H447.913L448.361 46.76L448.617 48.872L447.529 49.704L444.329 49.768L440.169 51.816L435.561 53.288L434.793 55.016L436.265 58.6L438.057 58.856L438.889 60.712L440.425 60.584L441.321 61.672C441.705 61.544 442.089 61.4587 442.473 61.416C442.857 61.3307 443.198 61.3307 443.497 61.416C443.71 61.4587 443.945 61.5013 444.201 61.544C444.457 61.544 444.755 61.5867 445.097 61.672C445.523 61.8 445.822 61.9493 445.993 62.12C446.163 62.248 446.313 62.376 446.441 62.504C446.569 62.5893 446.718 62.6747 446.889 62.76C447.059 62.8453 447.358 62.888 447.785 62.888C447.913 63.144 448.147 63.4 448.489 63.656C448.873 63.912 449.278 64.168 449.705 64.424C450.174 64.68 450.622 64.936 451.049 65.192C451.518 65.448 451.859 65.704 452.073 65.96C452.158 66.0453 452.201 66.1093 452.201 66.152C452.243 66.1947 452.307 66.2587 452.393 66.344L452.777 69.416L451.369 73.256L450.985 75.944L447.849 77.544L442.665 79.592L439.529 79.144C438.419 78.9733 437.438 78.9733 436.585 79.144C435.731 79.3147 434.942 79.4 434.217 79.4H427.177L426.409 77.48L426.921 75.624L436.201 74.664L439.273 74.28L443.113 70.184L442.537 68.328L439.721 67.816L434.793 66.472L433.961 66.92L431.273 65.704L429.545 64.552L427.561 60.2L426.089 57.32V54.696ZM485.954 64.36C485.015 64.232 484.183 64.4027 483.458 64.872C483.202 65 482.946 65.128 482.69 65.256C482.434 65.3413 482.178 65.4267 481.922 65.512C481.794 65.5547 481.666 65.5973 481.538 65.64C481.41 65.6827 481.303 65.7253 481.218 65.768L472.322 68.456C469.847 67.9013 468.972 68.3067 469.698 69.672C469.826 69.9707 469.996 70.4187 470.21 71.016C470.423 71.6133 470.594 72.04 470.722 72.296C471.276 72.5093 471.852 72.8507 472.45 73.32C473.047 73.7467 473.602 74.0027 474.114 74.088L475.266 73.96C475.564 73.96 475.97 73.9387 476.482 73.896C477.036 73.8533 477.57 73.7893 478.082 73.704C478.636 73.576 479.127 73.4267 479.554 73.256C480.023 73.0853 480.343 72.872 480.514 72.616C480.642 72.4027 480.834 72.2533 481.09 72.168C481.346 72.04 481.602 71.9333 481.858 71.848C482.028 71.8053 482.178 71.784 482.306 71.784C482.476 71.7413 482.668 71.6987 482.882 71.656L483.586 74.152L482.818 75.624C482.775 75.7093 482.626 75.816 482.37 75.944C482.156 76.0293 481.9 76.1573 481.602 76.328C481.303 76.4987 481.004 76.6693 480.706 76.84C480.45 76.968 480.258 77.096 480.13 77.224C480.044 77.3093 479.81 77.352 479.426 77.352C479.084 77.352 478.679 77.352 478.21 77.352C477.783 77.352 477.335 77.3733 476.866 77.416C476.396 77.4587 476.034 77.544 475.778 77.672C475.18 77.9707 474.711 78.1627 474.37 78.248C474.071 78.3333 473.815 78.3973 473.602 78.44C473.388 78.5253 473.239 78.504 473.154 78.376C473.068 78.3333 472.919 78.312 472.706 78.312C472.578 78.312 472.407 78.312 472.194 78.312C471.98 78.312 471.767 78.2907 471.554 78.248C470.999 78.2053 470.551 78.184 470.21 78.184C469.868 78.1413 469.655 78.12 469.57 78.12L463.426 75.112C463.298 73.832 462.7 73.192 461.634 73.192C461.42 73.192 461.164 73.0213 460.866 72.68C460.567 72.296 460.311 71.8907 460.098 71.464C459.927 71.2507 459.778 71.016 459.65 70.76C459.522 70.4613 459.394 70.1413 459.266 69.8L458.69 62.504L459.266 58.216C459.308 58.0453 459.436 57.832 459.65 57.576C459.906 57.1493 460.226 56.5093 460.61 55.656C460.78 55.272 461.122 54.9093 461.634 54.568C462.146 54.2267 462.679 53.928 463.234 53.672C463.831 53.3733 464.386 53.1173 464.898 52.904C465.452 52.648 465.858 52.4347 466.114 52.264C466.626 52.3493 467.372 51.7947 468.354 50.6C468.61 50.3013 468.93 50.0667 469.314 49.896C469.698 49.6827 470.082 49.512 470.466 49.384C470.679 49.2987 470.914 49.2347 471.17 49.192C471.426 49.1493 471.66 49.1067 471.874 49.064L479.362 50.024C479.788 50.1093 480.236 50.2373 480.706 50.408C481.047 50.5787 481.388 50.792 481.73 51.048C482.071 51.304 482.348 51.6027 482.562 51.944C482.86 52.6693 483.287 53.2667 483.842 53.736C484.396 54.1627 484.844 54.4613 485.186 54.632L487.554 58.856L487.042 63.016L485.954 64.36ZM476.482 62.184L476.994 61.8C477.122 61.7147 477.25 61.6293 477.378 61.544C477.506 61.416 477.612 61.3307 477.698 61.288C477.996 61.2027 478.338 61.032 478.722 60.776C479.106 60.52 479.255 60.2 479.17 59.816C479.17 59.0907 478.786 58.28 478.018 57.384C477.25 56.488 476.247 55.848 475.01 55.464C474.412 55.2507 473.836 55.144 473.282 55.144C472.727 55.144 472.194 55.1867 471.682 55.272C471.212 55.3147 470.764 55.3787 470.338 55.464C469.954 55.5493 469.634 55.592 469.378 55.592C468.396 55.3787 467.842 55.8267 467.714 56.936C467.074 57.9173 466.754 59.0053 466.754 60.2C466.796 61.352 466.924 62.4613 467.138 63.528C467.138 64.1253 467.244 64.616 467.458 65C467.714 65.384 468.012 65.6187 468.354 65.704C468.695 65.7893 469.036 65.7253 469.378 65.512C469.762 65.256 470.082 64.808 470.338 64.168L476.482 62.184Z" fill="#F4DFB0"/>
<path d="M101.264 5H618.848L532.584 118.869L15 118.868L101.264 5Z" stroke="#8C6F4D" stroke-width="4"/>
<defs>
<filter id="filter0_d_32_30" x="0.939209" y="0" width="631.97" height="131.869" filterUnits="userSpaceOnUse" color-interpolation-filters="sRGB">
<feFlood flood-opacity="0" result="BackgroundImageFix"/>
<feColorMatrix in="SourceAlpha" type="matrix" values="0 0 0 0 0 0 0 0 0 0 0 0 0 0 0 0 0 0 127 0" result="hardAlpha"/>
<feOffset dy="4"/>
<feGaussianBlur stdDeviation="2"/>
<feComposite in2="hardAlpha" operator="out"/>
<feColorMatrix type="matrix" values="0 0 0 0 0 0 0 0 0 0 0 0 0 0 0 0 0 0 0.25 0"/>
<feBlend mode="normal" in2="BackgroundImageFix" result="effect1_dropShadow_32_30"/>
<feBlend mode="normal" in="SourceGraphic" in2="effect1_dropShadow_32_30" result="shape"/>
</filter>
</defs>
</svg>
